<?xml version="1.0" encoding="UTF-8"?>
<!DOCTYPE svg PUBLIC "-//W3C//DTD SVG 1.1//EN" "http://www.w3.org/Graphics/SVG/1.1/DTD/svg11.dtd">
<svg xmlns="http://www.w3.org/2000/svg" style="background: #ffffff; background-color: light-dark(#ffffff, var(--ge-dark-color, #121212)); color-scheme: light dark;" xmlns:xlink="http://www.w3.org/1999/xlink" version="1.1" width="971px" height="571px" viewBox="0 0 971 571"><defs><style>@keyframes ge-flow-animation-d_ulf7pO5NPwXq0glKS_ {&#xa;  to {&#xa;    stroke-dashoffset: 0;&#xa;  }&#xa;}</style></defs><rect fill="#ffffff" width="100%" height="100%" x="0" y="0" style="fill: light-dark(#ffffff, var(--ge-dark-color, #121212));"/><g><g data-cell-id="14uBjy1KFsmBsmUtmstY-0"><g data-cell-id="14uBjy1KFsmBsmUtmstY-1"><g data-cell-id="14uBjy1KFsmBsmUtmstY-2"><g transform="translate(0.5,0.5)"><rect x="0" y="0" width="970" height="570" fill="#ffffff" stroke="#000000" pointer-events="all" style="fill: light-dark(#ffffff, var(--ge-dark-color, #121212)); stroke: light-dark(rgb(0, 0, 0), rgb(255, 255, 255));"/></g></g><g data-cell-id="14uBjy1KFsmBsmUtmstY-7"><g transform="translate(0.5,0.5)"><path d="M 814 230 L 892 230 L 892 308 L 814 308 Z" fill="#7aa116" stroke="none" pointer-events="all" style="fill: rgb(122, 161, 22);"/><path d="M 876.28 272.22 L 876.71 269.21 C 880.66 271.57 880.71 272.55 880.71 272.58 C 880.7 272.58 880.03 273.14 876.28 272.22 Z M 874.12 271.62 C 867.3 269.56 857.8 265.2 853.96 263.39 C 853.96 263.37 853.96 263.36 853.96 263.34 C 853.96 261.86 852.76 260.66 851.28 260.66 C 849.81 260.66 848.61 261.86 848.61 263.34 C 848.61 264.82 849.81 266.02 851.28 266.02 C 851.93 266.02 852.52 265.78 852.98 265.39 C 857.51 267.53 866.93 271.82 873.8 273.85 L 871.08 293.03 C 871.07 293.08 871.07 293.13 871.07 293.18 C 871.07 294.87 863.6 297.97 851.39 297.97 C 839.05 297.97 831.49 294.87 831.49 293.18 C 831.49 293.13 831.49 293.08 831.48 293.03 L 825.81 251.57 C 830.72 254.95 841.29 256.74 851.39 256.74 C 861.48 256.74 872.03 254.96 876.96 251.59 Z M 825.21 247.25 C 825.29 245.78 833.71 240.03 851.39 240.03 C 869.07 240.03 877.5 245.78 877.58 247.25 L 877.58 247.75 C 876.61 251.04 865.69 254.51 851.39 254.51 C 837.07 254.51 826.15 251.02 825.21 247.73 Z M 879.81 247.27 C 879.81 243.41 868.74 237.8 851.39 237.8 C 834.05 237.8 822.98 243.41 822.98 247.27 L 823.08 248.11 L 829.27 293.27 C 829.41 298.32 842.88 300.2 851.39 300.2 C 861.94 300.2 873.15 297.77 873.3 293.27 L 875.97 274.44 C 877.45 274.8 878.68 274.98 879.66 274.98 C 880.98 274.98 881.87 274.66 882.41 274.01 C 882.85 273.49 883.02 272.85 882.89 272.16 C 882.61 270.62 880.77 268.96 877.05 266.83 L 879.69 248.16 Z" fill="#ffffff" stroke="none" pointer-events="all" style="fill: rgb(255, 255, 255);"/></g><g><g><switch><foreignObject style="overflow: visible; text-align: left;" pointer-events="none" width="100%" height="100%" requiredFeatures="http://www.w3.org/TR/SVG11/feature#Extensibility"><div xmlns="http://www.w3.org/1999/xhtml" style="display: flex; align-items: unsafe flex-start; justify-content: unsafe center; width: 1px; height: 1px; padding-top: 315px; margin-left: 853px;"><div style="box-sizing: border-box; font-size: 0; text-align: center; color: #232F3E; "><div style="display: inline-block; font-size: 12px; font-family: Helvetica; color: #232F3E; line-height: 1.2; pointer-events: all; white-space: nowrap; "><span style="text-wrap-mode: wrap;"><b style=""><font style="color: rgb(255, 0, 0);">[</font></b></span><b style="color: rgb(0, 0, 0); text-align: left; text-wrap-mode: wrap;"><font style="color: rgb(255, 0, 0);">OwncastSegments</font></b><span style="color: rgb(0, 0, 0); text-align: left; text-wrap-mode: wrap; background-color: transparent;"><b><font style="color: rgb(255, 0, 0);">BucketName</font></b></span><span style="text-wrap-mode: wrap;"><b style=""><font style="color: rgb(255, 0, 0);">]</font></b></span></div></div></div></foreignObject><text x="853" y="327" fill="#232F3E" font-family="Helvetica" font-size="12px" text-anchor="middle">[OwncastSegme...</text></switch></g></g></g><g data-cell-id="14uBjy1KFsmBsmUtmstY-8"><g transform="translate(0.5,0.5)"><path d="M 310 110 L 387.63 110" fill="none" stroke="#000000" stroke-miterlimit="10" stroke-dasharray="3 3" pointer-events="stroke" style="stroke: light-dark(rgb(0, 0, 0), rgb(255, 255, 255)); animation: 188ms linear 0s infinite normal none running ge-flow-animation-d_ulf7pO5NPwXq0glKS_; stroke-dashoffset: 6;"/><path d="M 392.88 110 L 385.88 113.5 L 387.63 110 L 385.88 106.5 Z" fill="#000000" stroke="#000000" stroke-miterlimit="10" pointer-events="all" style="fill: light-dark(rgb(0, 0, 0), rgb(255, 255, 255)); stroke: light-dark(rgb(0, 0, 0), rgb(255, 255, 255));"/></g></g><g data-cell-id="14uBjy1KFsmBsmUtmstY-9"><g transform="translate(0.5,0.5)"><path d="M 472 110 L 593.63 110" fill="none" stroke="#000000" stroke-miterlimit="10" stroke-dasharray="3 3" pointer-events="stroke" style="stroke: light-dark(rgb(0, 0, 0), rgb(255, 255, 255)); animation: 188ms linear 0s infinite normal none running ge-flow-animation-d_ulf7pO5NPwXq0glKS_; stroke-dashoffset: 6;"/><path d="M 598.88 110 L 591.88 113.5 L 593.63 110 L 591.88 106.5 Z" fill="#000000" stroke="#000000" stroke-miterlimit="10" pointer-events="all" style="fill: light-dark(rgb(0, 0, 0), rgb(255, 255, 255)); stroke: light-dark(rgb(0, 0, 0), rgb(255, 255, 255));"/></g></g><g data-cell-id="14uBjy1KFsmBsmUtmstY-10"><g transform="translate(0.5,0.5)"><path d="M 678 110 L 807.63 110" fill="none" stroke="#000000" stroke-miterlimit="10" stroke-dasharray="3 3" pointer-events="stroke" style="stroke: light-dark(rgb(0, 0, 0), rgb(255, 255, 255)); animation: 188ms linear 0s infinite normal none running ge-flow-animation-d_ulf7pO5NPwXq0glKS_; stroke-dashoffset: 6;"/><path d="M 812.88 110 L 805.88 113.5 L 807.63 110 L 805.88 106.5 Z" fill="#000000" stroke="#000000" stroke-miterlimit="10" pointer-events="all" style="fill: light-dark(rgb(0, 0, 0), rgb(255, 255, 255)); stroke: light-dark(rgb(0, 0, 0), rgb(255, 255, 255));"/></g></g><g data-cell-id="14uBjy1KFsmBsmUtmstY-11"><g transform="translate(0.5,0.5)"><path d="M 678 409 L 730 409 L 730 288.5 L 684.37 288.5" fill="none" stroke="#000000" stroke-miterlimit="10" stroke-dasharray="3 3" pointer-events="stroke" style="stroke: light-dark(rgb(0, 0, 0), rgb(255, 255, 255)); animation: 188ms linear 0s infinite normal none running ge-flow-animation-d_ulf7pO5NPwXq0glKS_; stroke-dashoffset: 6;"/><path d="M 679.12 288.5 L 686.12 285 L 684.37 288.5 L 686.12 292 Z" fill="#000000" stroke="#000000" stroke-miterlimit="10" pointer-events="all" style="fill: light-dark(rgb(0, 0, 0), rgb(255, 255, 255)); stroke: light-dark(rgb(0, 0, 0), rgb(255, 255, 255));"/></g></g><g data-cell-id="DaVDxh5DFGTlFCcu6kN9-0"><g transform="translate(0.5,0.5)"><path d="M 34.67 190 C 33.43 190 32.24 189.52 31.37 188.66 C 30.49 187.8 30 186.64 30 185.43 L 30 34.57 C 30 33.36 30.49 32.2 31.37 31.34 C 32.24 30.48 33.43 30 34.67 30 L 305.33 30 C 306.57 30 307.76 30.48 308.63 31.34 C 309.51 32.2 310 33.36 310 34.57 L 310 185.43 C 310 186.64 309.51 187.8 308.63 188.66 C 307.76 189.52 306.57 190 305.33 190 Z" fill="#0079d6" stroke="none" pointer-events="all" style="fill: rgb(0, 121, 214);"/><path d="M 32.33 66.57 L 32.33 185.43 C 32.33 186.03 32.58 186.62 33.02 187.04 C 33.45 187.47 34.05 187.71 34.67 187.71 L 305.33 187.71 C 305.95 187.71 306.55 187.47 306.98 187.04 C 307.42 186.62 307.67 186.03 307.67 185.43 L 307.67 66.57 Z" fill-opacity="0.5" fill="#ffffff" stroke="none" pointer-events="all" style="fill: rgb(255, 255, 255);"/></g><g><g><switch><foreignObject style="overflow: visible; text-align: left;" pointer-events="none" width="100%" height="100%" requiredFeatures="http://www.w3.org/TR/SVG11/feature#Extensibility"><div xmlns="http://www.w3.org/1999/xhtml" style="display: flex; align-items: unsafe flex-start; justify-content: unsafe center; width: 278px; height: 1px; padding-top: 31px; margin-left: 31px;"><div style="box-sizing: border-box; font-size: 0; text-align: center; color: #FFFFFF; "><div style="display: inline-block; font-size: 12px; font-family: Helvetica; color: #FFFFFF; line-height: 1.2; pointer-events: all; white-space: normal; word-wrap: normal; "><b>YourDomain</b>.com<div>Personal Website</div></div></div></div></foreignObject><text x="170" y="43" fill="#FFFFFF" font-family="Helvetica" font-size="12px" text-anchor="middle">YourDomain.com...</text></switch></g></g></g><g data-cell-id="2T9-67djbdea5_xVheL9-0"><g transform="translate(0.5,0.5)"><path d="M 394 71 L 472 71 L 472 149 L 394 149 Z" fill="#8c4fff" stroke="none" pointer-events="all" style="fill: rgb(140, 79, 255);"/><path d="M 442.66 110.82 C 443.49 111.58 443.9 112.6 443.9 113.88 C 443.9 115.27 443.4 116.38 442.4 117.21 C 441.4 118.04 440.05 118.46 438.37 118.46 C 437.03 118.46 435.71 118.17 434.41 117.6 L 434.41 115.9 C 435.95 116.41 437.27 116.67 438.37 116.67 C 439.44 116.67 440.27 116.43 440.86 115.94 C 441.44 115.46 441.73 114.77 441.73 113.88 C 441.73 112.16 440.64 111.3 438.47 111.3 C 437.79 111.3 437.12 111.34 436.45 111.41 L 436.45 110.01 L 440.92 105.13 L 434.62 105.13 L 434.62 103.38 L 443.28 103.38 L 443.28 105.07 L 438.9 109.71 C 438.97 109.69 439.04 109.69 439.11 109.69 L 439.32 109.69 C 440.73 109.69 441.84 110.07 442.66 110.82 M 430.3 110.45 C 431.17 111.26 431.6 112.37 431.6 113.79 C 431.6 115.18 431.1 116.31 430.09 117.17 C 429.08 118.03 427.76 118.46 426.11 118.46 C 424.66 118.46 423.31 118.17 422.05 117.6 L 422.05 115.9 C 423.62 116.41 424.97 116.67 426.09 116.67 C 427.17 116.67 427.99 116.42 428.57 115.93 C 429.14 115.44 429.43 114.74 429.43 113.81 C 429.43 112.81 429.16 112.08 428.62 111.62 C 428.08 111.17 427.2 110.94 425.98 110.94 C 425.1 110.94 424 111.01 422.68 111.15 L 422.68 109.75 L 423.09 103.38 L 430.86 103.38 L 430.86 105.13 L 424.88 105.13 L 424.6 109.45 C 425.38 109.31 426.08 109.24 426.7 109.24 C 428.24 109.24 429.44 109.64 430.3 110.45 M 446.29 126.05 C 440.9 127.02 436.17 129.22 433 131.01 C 429.83 129.22 425.1 127.02 419.71 126.05 C 418.19 125.78 410.62 124.2 410.62 119.83 C 410.62 117.8 411.34 116.45 412.74 114.05 C 414.4 111.18 416.48 107.61 416.48 102.46 C 416.48 98.78 415.51 95.25 413.61 91.96 C 413.83 91.69 414.06 91.41 414.29 91.13 C 417.11 92.54 420.04 93.25 423.03 93.25 C 426.67 93.25 430.03 92.29 433 90.4 C 435.97 92.29 439.32 93.25 442.97 93.25 C 445.95 93.25 448.89 92.54 451.71 91.13 C 451.94 91.41 452.17 91.69 452.39 91.96 C 450.49 95.25 449.52 98.78 449.52 102.46 C 449.52 107.61 451.6 111.18 453.26 114.06 C 454.65 116.45 455.38 117.8 455.38 119.83 C 455.38 124.2 447.81 125.78 446.29 126.05 M 451.75 102.46 C 451.75 98.95 452.74 95.58 454.69 92.46 C 454.94 92.05 454.91 91.53 454.61 91.16 C 454.04 90.47 453.45 89.74 452.86 89.02 C 452.53 88.6 451.94 88.48 451.46 88.74 C 448.72 90.26 445.87 91.02 442.97 91.02 C 439.48 91.02 436.42 90.09 433.63 88.15 C 433.25 87.89 432.75 87.89 432.37 88.15 C 429.58 90.09 426.52 91.02 423.03 91.02 C 420.13 91.02 417.27 90.26 414.54 88.74 C 414.06 88.48 413.47 88.6 413.13 89.02 C 412.55 89.74 411.96 90.47 411.39 91.16 C 411.09 91.53 411.06 92.05 411.31 92.46 C 413.26 95.58 414.25 98.95 414.25 102.46 C 414.25 107.01 412.35 110.29 410.81 112.94 C 409.31 115.52 408.39 117.24 408.39 119.83 C 408.39 125.82 416.75 127.78 419.31 128.24 C 424.72 129.21 429.43 131.5 432.44 133.25 C 432.61 133.36 432.81 133.41 433 133.41 C 433.19 133.41 433.39 133.36 433.56 133.25 C 436.57 131.5 441.28 129.21 446.69 128.24 C 449.25 127.78 457.6 125.82 457.6 119.83 C 457.6 117.24 456.69 115.52 455.19 112.94 C 453.65 110.29 451.75 107.01 451.75 102.46 M 447.45 132.48 C 440.63 133.71 434.92 137.37 433 138.71 C 431.08 137.37 425.37 133.71 418.55 132.48 C 405.13 130.07 404.09 122.18 404.09 119.83 C 404.09 115.94 405.62 113.32 407.09 110.78 C 408.5 108.36 409.95 105.85 409.95 102.46 C 409.95 97.1 406.86 93.31 405.33 91.77 C 406.93 89.82 410.99 84.88 412.99 82.3 C 416.02 85.16 419.54 86.72 423.03 86.72 C 426.89 86.72 430.09 85.15 433 81.79 C 435.91 85.15 439.1 86.72 442.97 86.72 C 446.45 86.72 449.98 85.16 453.01 82.3 C 455.01 84.88 459.06 89.82 460.67 91.77 C 459.14 93.31 456.05 97.1 456.05 102.46 C 456.05 105.85 457.5 108.36 458.91 110.78 C 460.38 113.32 461.91 115.94 461.91 119.83 C 461.91 122.18 460.86 130.07 447.45 132.48 M 460.83 109.66 C 459.46 107.29 458.27 105.25 458.27 102.46 C 458.27 96.58 462.85 92.78 462.89 92.74 C 463.12 92.55 463.27 92.28 463.3 91.99 C 463.33 91.69 463.24 91.4 463.05 91.17 C 462.98 91.08 455.69 82.24 454.02 79.95 C 453.82 79.69 453.52 79.52 453.19 79.5 C 452.86 79.47 452.54 79.61 452.31 79.85 C 449.51 82.84 446.19 84.5 442.97 84.5 C 439.41 84.5 436.61 82.91 433.88 79.35 C 433.46 78.8 432.54 78.8 432.12 79.35 C 429.39 82.91 426.59 84.5 423.03 84.5 C 419.81 84.5 416.49 82.84 413.69 79.85 C 413.46 79.61 413.14 79.47 412.81 79.5 C 412.48 79.52 412.17 79.69 411.98 79.95 C 410.31 82.24 403.02 91.08 402.95 91.17 C 402.76 91.4 402.67 91.69 402.7 91.99 C 402.73 92.28 402.87 92.55 403.1 92.74 C 403.15 92.78 407.73 96.58 407.73 102.46 C 407.73 105.25 406.54 107.29 405.17 109.66 C 403.62 112.33 401.87 115.35 401.87 119.83 C 401.87 127.29 407.96 132.84 418.16 134.67 C 425.84 136.05 432.26 140.92 432.32 140.97 C 432.52 141.12 432.76 141.2 433 141.2 C 433.24 141.2 433.48 141.12 433.68 140.97 C 433.74 140.92 440.14 136.05 447.84 134.67 C 458.04 132.84 464.13 127.29 464.13 119.83 C 464.13 115.35 462.38 112.33 460.83 109.66" fill="#ffffff" stroke="none" pointer-events="all" style="fill: rgb(255, 255, 255);"/></g><g><g><switch><foreignObject style="overflow: visible; text-align: left;" pointer-events="none" width="100%" height="100%" requiredFeatures="http://www.w3.org/TR/SVG11/feature#Extensibility"><div xmlns="http://www.w3.org/1999/xhtml" style="display: flex; align-items: unsafe flex-start; justify-content: unsafe center; width: 1px; height: 1px; padding-top: 156px; margin-left: 433px;"><div style="box-sizing: border-box; font-size: 0; text-align: center; color: #232F3E; "><div style="display: inline-block; font-size: 12px; font-family: Helvetica; color: #232F3E; line-height: 1.2; pointer-events: all; white-space: nowrap; "><b><font style="color: rgb(255, 0, 0);">YourDomain</font></b>.com<div>www.<b><font style="color: rgb(255, 0, 0);">YourDomain</font></b>.com</div></div></div></div></foreignObject><text x="433" y="168" fill="#232F3E" font-family="Helvetica" font-size="12px" text-anchor="middle">YourDomain.co...</text></switch></g></g></g><g data-cell-id="sTEDV8InmLuwpuNfYYXs-0"><g transform="translate(0.5,0.5)"><path d="M 600 71 L 678 71 L 678 149 L 600 149 Z" fill="#8c4fff" stroke="none" pointer-events="all" style="fill: rgb(140, 79, 255);"/><path d="M 655.85 123.51 C 655.85 121.67 654.35 120.17 652.51 120.17 C 650.66 120.17 649.16 121.67 649.16 123.51 C 649.16 125.35 650.66 126.85 652.51 126.85 C 654.35 126.85 655.85 125.35 655.85 123.51 Z M 658.08 123.51 C 658.08 126.58 655.58 129.08 652.51 129.08 C 649.44 129.08 646.94 126.58 646.94 123.51 C 646.94 120.44 649.44 117.94 652.51 117.94 C 655.58 117.94 658.08 120.44 658.08 123.51 Z M 628.29 107.43 C 628.29 105.59 626.79 104.09 624.95 104.09 C 623.11 104.09 621.61 105.59 621.61 107.43 C 621.61 109.27 623.11 110.77 624.95 110.77 C 626.79 110.77 628.29 109.27 628.29 107.43 Z M 630.52 107.43 C 630.52 110.5 628.02 113 624.95 113 C 621.88 113 619.38 110.5 619.38 107.43 C 619.38 104.36 621.88 101.86 624.95 101.86 C 628.02 101.86 630.52 104.36 630.52 107.43 Z M 638.7 89.95 C 638.7 91.79 640.2 93.29 642.04 93.29 C 643.89 93.29 645.38 91.79 645.38 89.95 C 645.38 88.11 643.89 86.61 642.04 86.61 C 640.2 86.61 638.7 88.11 638.7 89.95 Z M 636.47 89.95 C 636.47 86.88 638.97 84.38 642.04 84.38 C 645.11 84.38 647.61 86.88 647.61 89.95 C 647.61 93.02 645.11 95.52 642.04 95.52 C 638.97 95.52 636.47 93.02 636.47 89.95 Z M 667.97 110 C 667.97 99.67 662.43 90.11 653.5 84.94 C 651.9 85.26 650.35 85.7 648.42 86.4 L 647.66 84.31 C 648.67 83.94 649.57 83.65 650.44 83.4 C 646.85 81.85 642.95 81.03 639 81.03 C 637.12 81.03 635.27 81.22 633.46 81.58 C 634.77 82.34 635.93 83.11 637.06 83.96 L 635.71 85.74 C 634.12 84.53 632.47 83.51 630.31 82.38 C 619.36 85.82 611.48 95.47 610.23 106.8 C 612.53 106.34 614.73 106.08 617.18 106.02 L 617.23 108.25 C 614.67 108.31 612.47 108.58 610.06 109.11 C 610.05 109.41 610.03 109.71 610.03 110 C 610.03 119.65 614.8 128.54 622.65 133.9 C 621.25 129.74 620.56 125.81 620.56 121.97 C 620.56 119.79 620.94 117.99 621.33 116.09 C 621.43 115.65 621.52 115.2 621.61 114.73 L 623.8 115.16 C 623.7 115.64 623.61 116.1 623.51 116.54 C 623.12 118.41 622.79 120.02 622.79 121.97 C 622.79 126.33 623.74 130.83 625.69 135.72 C 629.83 137.87 634.31 138.97 639 138.97 C 642.07 138.97 645.07 138.48 647.93 137.54 C 649.05 135.32 649.88 133.24 650.58 130.84 L 652.72 131.46 C 652.21 133.21 651.63 134.8 650.93 136.38 C 652.73 135.57 654.43 134.57 656.03 133.41 C 655.65 132.46 655.23 131.53 654.78 130.61 L 656.77 129.62 C 657.16 130.39 657.51 131.18 657.85 131.98 C 664.3 126.46 667.97 118.54 667.97 110 Z M 670.2 110 C 670.2 119.72 665.78 128.72 658.08 134.68 C 656.17 136.16 654.1 137.39 651.91 138.38 C 650.99 138.8 650.04 139.19 649.07 139.52 C 645.86 140.64 642.47 141.2 639 141.2 C 633.87 141.2 628.78 139.92 624.28 137.51 C 614.11 132.07 607.8 121.53 607.8 110 C 607.8 109.24 607.82 108.65 607.87 108.12 C 608.62 95.1 617.56 83.83 630.09 80.1 C 632.94 79.24 635.94 78.8 639 78.8 C 644.36 78.8 649.63 80.18 654.25 82.79 C 664.09 88.3 670.2 98.73 670.2 110 Z M 636.01 93.8 L 634.54 92.12 C 632.04 94.3 630.1 96.62 627.83 100.11 L 629.7 101.33 C 631.85 98.01 633.68 95.84 636.01 93.8 Z M 632.62 108.25 L 631.9 110.35 C 637.01 112.11 641.48 114.92 645.95 119.18 L 647.49 117.56 C 642.78 113.07 638.05 110.11 632.62 108.25 Z M 647.52 95.14 C 651.7 101.52 654.06 108.52 654.52 115.95 L 652.29 116.09 C 651.85 109.05 649.62 102.41 645.66 96.37 Z" fill="#ffffff" stroke="none" pointer-events="all" style="fill: rgb(255, 255, 255);"/></g><g><g><switch><foreignObject style="overflow: visible; text-align: left;" pointer-events="none" width="100%" height="100%" requiredFeatures="http://www.w3.org/TR/SVG11/feature#Extensibility"><div xmlns="http://www.w3.org/1999/xhtml" style="display: flex; align-items: unsafe flex-start; justify-content: unsafe center; width: 1px; height: 1px; padding-top: 156px; margin-left: 639px;"><div style="box-sizing: border-box; font-size: 0; text-align: center; color: #232F3E; "><div style="display: inline-block; font-size: 12px; font-family: Helvetica; color: #232F3E; line-height: 1.2; pointer-events: all; white-space: nowrap; "><span style="font-family: &quot;Amazon Ember&quot;, &quot;Helvetica Neue&quot;, Roboto, Arial, sans-serif; text-align: start; background-color: rgb(252, 252, 253);"><b style=""><font style="color: rgb(255, 0, 0);">[YourDomain]</font></b><font style="font-size: 14px; color: rgb(15, 20, 26);" color="#0f141a"> distribution</font></span></div></div></div></foreignObject><text x="639" y="168" fill="#232F3E" font-family="Helvetica" font-size="12px" text-anchor="middle">[YourDomain]...</text></switch></g></g></g><g data-cell-id="e77w6GYTic9TfzsCeOoI-0"><g transform="translate(0.5,0.5)"><path d="M 200 230 L 278 230 L 278 308 L 200 308 Z" fill="#8c4fff" stroke="none" pointer-events="all" style="fill: rgb(140, 79, 255);"/><path d="M 248.66 269.82 C 249.49 270.58 249.9 271.6 249.9 272.88 C 249.9 274.27 249.4 275.38 248.4 276.21 C 247.4 277.04 246.05 277.46 244.37 277.46 C 243.03 277.46 241.71 277.17 240.41 276.6 L 240.41 274.9 C 241.95 275.41 243.27 275.67 244.37 275.67 C 245.44 275.67 246.27 275.43 246.86 274.94 C 247.44 274.46 247.73 273.77 247.73 272.88 C 247.73 271.16 246.64 270.3 244.47 270.3 C 243.79 270.3 243.12 270.34 242.45 270.41 L 242.45 269.01 L 246.92 264.13 L 240.62 264.13 L 240.62 262.38 L 249.28 262.38 L 249.28 264.07 L 244.9 268.71 C 244.97 268.69 245.04 268.69 245.11 268.69 L 245.32 268.69 C 246.73 268.69 247.84 269.07 248.66 269.82 M 236.3 269.45 C 237.17 270.26 237.6 271.37 237.6 272.79 C 237.6 274.18 237.1 275.31 236.09 276.17 C 235.08 277.03 233.76 277.46 232.11 277.46 C 230.66 277.46 229.31 277.17 228.05 276.6 L 228.05 274.9 C 229.62 275.41 230.97 275.67 232.09 275.67 C 233.17 275.67 233.99 275.42 234.57 274.93 C 235.14 274.44 235.43 273.74 235.43 272.81 C 235.43 271.81 235.16 271.08 234.62 270.62 C 234.08 270.17 233.2 269.94 231.98 269.94 C 231.1 269.94 230 270.01 228.68 270.15 L 228.68 268.75 L 229.09 262.38 L 236.86 262.38 L 236.86 264.13 L 230.88 264.13 L 230.6 268.45 C 231.38 268.31 232.08 268.24 232.7 268.24 C 234.24 268.24 235.44 268.64 236.3 269.45 M 252.29 285.05 C 246.9 286.02 242.17 288.22 239 290.01 C 235.83 288.22 231.1 286.02 225.71 285.05 C 224.19 284.78 216.62 283.2 216.62 278.83 C 216.62 276.8 217.34 275.45 218.74 273.05 C 220.4 270.18 222.48 266.61 222.48 261.46 C 222.48 257.78 221.51 254.25 219.61 250.96 C 219.83 250.69 220.06 250.41 220.29 250.13 C 223.11 251.54 226.04 252.25 229.03 252.25 C 232.67 252.25 236.03 251.29 239 249.4 C 241.97 251.29 245.32 252.25 248.97 252.25 C 251.95 252.25 254.89 251.54 257.71 250.13 C 257.94 250.41 258.17 250.69 258.39 250.96 C 256.49 254.25 255.52 257.78 255.52 261.46 C 255.52 266.61 257.6 270.18 259.26 273.06 C 260.65 275.45 261.38 276.8 261.38 278.83 C 261.38 283.2 253.81 284.78 252.29 285.05 M 257.75 261.46 C 257.75 257.95 258.74 254.58 260.69 251.46 C 260.94 251.05 260.91 250.53 260.61 250.16 C 260.04 249.47 259.45 248.74 258.86 248.02 C 258.53 247.6 257.94 247.48 257.46 247.74 C 254.72 249.26 251.87 250.02 248.97 250.02 C 245.48 250.02 242.42 249.09 239.63 247.15 C 239.25 246.89 238.75 246.89 238.37 247.15 C 235.58 249.09 232.52 250.02 229.03 250.02 C 226.13 250.02 223.27 249.26 220.54 247.74 C 220.06 247.48 219.47 247.6 219.13 248.02 C 218.55 248.74 217.96 249.47 217.39 250.16 C 217.09 250.53 217.06 251.05 217.31 251.46 C 219.26 254.58 220.25 257.95 220.25 261.46 C 220.25 266.01 218.35 269.29 216.81 271.94 C 215.31 274.52 214.39 276.24 214.39 278.83 C 214.39 284.82 222.75 286.78 225.31 287.24 C 230.72 288.21 235.43 290.5 238.44 292.25 C 238.61 292.36 238.81 292.41 239 292.41 C 239.19 292.41 239.39 292.36 239.56 292.25 C 242.57 290.5 247.28 288.21 252.69 287.24 C 255.25 286.78 263.6 284.82 263.6 278.83 C 263.6 276.24 262.69 274.52 261.19 271.94 C 259.65 269.29 257.75 266.01 257.75 261.46 M 253.45 291.48 C 246.63 292.71 240.92 296.37 239 297.71 C 237.08 296.37 231.37 292.71 224.55 291.48 C 211.13 289.07 210.09 281.18 210.09 278.83 C 210.09 274.94 211.62 272.32 213.09 269.78 C 214.5 267.36 215.95 264.85 215.95 261.46 C 215.95 256.1 212.86 252.31 211.33 250.77 C 212.93 248.82 216.99 243.88 218.99 241.3 C 222.02 244.16 225.54 245.72 229.03 245.72 C 232.89 245.72 236.09 244.15 239 240.79 C 241.91 244.15 245.1 245.72 248.97 245.72 C 252.45 245.72 255.98 244.16 259.01 241.3 C 261.01 243.88 265.06 248.82 266.67 250.77 C 265.14 252.31 262.05 256.1 262.05 261.46 C 262.05 264.85 263.5 267.36 264.91 269.78 C 266.38 272.32 267.91 274.94 267.91 278.83 C 267.91 281.18 266.86 289.07 253.45 291.48 M 266.83 268.66 C 265.46 266.29 264.27 264.25 264.27 261.46 C 264.27 255.58 268.85 251.78 268.89 251.74 C 269.12 251.55 269.27 251.28 269.3 250.99 C 269.33 250.69 269.24 250.4 269.05 250.17 C 268.98 250.08 261.69 241.24 260.02 238.95 C 259.82 238.69 259.52 238.52 259.19 238.5 C 258.86 238.47 258.54 238.61 258.31 238.85 C 255.51 241.84 252.19 243.5 248.97 243.5 C 245.41 243.5 242.61 241.91 239.88 238.35 C 239.46 237.8 238.54 237.8 238.12 238.35 C 235.39 241.91 232.59 243.5 229.03 243.5 C 225.81 243.5 222.49 241.84 219.69 238.85 C 219.46 238.61 219.14 238.47 218.81 238.5 C 218.48 238.52 218.17 238.69 217.98 238.95 C 216.31 241.24 209.02 250.08 208.95 250.17 C 208.76 250.4 208.67 250.69 208.7 250.99 C 208.73 251.28 208.87 251.55 209.1 251.74 C 209.15 251.78 213.73 255.58 213.73 261.46 C 213.73 264.25 212.54 266.29 211.17 268.66 C 209.62 271.33 207.87 274.35 207.87 278.83 C 207.87 286.29 213.96 291.84 224.16 293.67 C 231.84 295.05 238.26 299.92 238.32 299.97 C 238.52 300.12 238.76 300.2 239 300.2 C 239.24 300.2 239.48 300.12 239.68 299.97 C 239.74 299.92 246.14 295.05 253.84 293.67 C 264.04 291.84 270.13 286.29 270.13 278.83 C 270.13 274.35 268.38 271.33 266.83 268.66" fill="#ffffff" stroke="none" pointer-events="all" style="fill: rgb(255, 255, 255);"/></g><g><g><switch><foreignObject style="overflow: visible; text-align: left;" pointer-events="none" width="100%" height="100%" requiredFeatures="http://www.w3.org/TR/SVG11/feature#Extensibility"><div xmlns="http://www.w3.org/1999/xhtml" style="display: flex; align-items: unsafe flex-start; justify-content: unsafe center; width: 1px; height: 1px; padding-top: 315px; margin-left: 239px;"><div style="box-sizing: border-box; font-size: 0; text-align: center; color: #232F3E; "><div style="display: inline-block; font-size: 12px; font-family: Helvetica; color: #232F3E; line-height: 1.2; pointer-events: all; white-space: nowrap; "><b><font style="color: rgb(255, 0, 0);">YourSubDomain</font></b>.<b><font style="color: rgb(255, 0, 0);">YourDomain</font></b>.com</div></div></div></foreignObject><text x="239" y="327" fill="#232F3E" font-family="Helvetica" font-size="12px" text-anchor="middle">YourSubDomain...</text></switch></g></g></g><g data-cell-id="e77w6GYTic9TfzsCeOoI-1"><g transform="translate(0.5,0.5)"><path d="M 240 190 L 240 210 L 239 210 L 239 223.63" fill="none" stroke="#000000" stroke-miterlimit="10" stroke-dasharray="3 3" pointer-events="stroke" style="stroke: light-dark(rgb(0, 0, 0), rgb(255, 255, 255)); animation: 188ms linear 0s infinite normal none running ge-flow-animation-d_ulf7pO5NPwXq0glKS_; stroke-dashoffset: 6;"/><path d="M 239 228.88 L 235.5 221.88 L 239 223.63 L 242.5 221.88 Z" fill="#000000" stroke="#000000" stroke-miterlimit="10" pointer-events="all" style="fill: light-dark(rgb(0, 0, 0), rgb(255, 255, 255)); stroke: light-dark(rgb(0, 0, 0), rgb(255, 255, 255));"/></g></g><g data-cell-id="4xx-t0KW6O9_L04DhV0j-0"><g transform="translate(0.5,0.5)"><path d="M 394 230 L 472 230 L 472 308 L 394 308 Z" fill="#8c4fff" stroke="none" pointer-events="all" style="fill: rgb(140, 79, 255);"/><path d="M 449.85 282.51 C 449.85 280.67 448.35 279.17 446.51 279.17 C 444.66 279.17 443.16 280.67 443.16 282.51 C 443.16 284.35 444.66 285.85 446.51 285.85 C 448.35 285.85 449.85 284.35 449.85 282.51 Z M 452.08 282.51 C 452.08 285.58 449.58 288.08 446.51 288.08 C 443.44 288.08 440.94 285.58 440.94 282.51 C 440.94 279.44 443.44 276.94 446.51 276.94 C 449.58 276.94 452.08 279.44 452.08 282.51 Z M 422.29 266.43 C 422.29 264.59 420.79 263.09 418.95 263.09 C 417.11 263.09 415.61 264.59 415.61 266.43 C 415.61 268.27 417.11 269.77 418.95 269.77 C 420.79 269.77 422.29 268.27 422.29 266.43 Z M 424.52 266.43 C 424.52 269.5 422.02 272 418.95 272 C 415.88 272 413.38 269.5 413.38 266.43 C 413.38 263.36 415.88 260.86 418.95 260.86 C 422.02 260.86 424.52 263.36 424.52 266.43 Z M 432.7 248.95 C 432.7 250.79 434.2 252.29 436.04 252.29 C 437.89 252.29 439.38 250.79 439.38 248.95 C 439.38 247.11 437.89 245.61 436.04 245.61 C 434.2 245.61 432.7 247.11 432.7 248.95 Z M 430.47 248.95 C 430.47 245.88 432.97 243.38 436.04 243.38 C 439.11 243.38 441.61 245.88 441.61 248.95 C 441.61 252.02 439.11 254.52 436.04 254.52 C 432.97 254.52 430.47 252.02 430.47 248.95 Z M 461.97 269 C 461.97 258.67 456.43 249.11 447.5 243.94 C 445.9 244.26 444.35 244.7 442.42 245.4 L 441.66 243.31 C 442.67 242.94 443.57 242.65 444.44 242.4 C 440.85 240.85 436.95 240.03 433 240.03 C 431.12 240.03 429.27 240.22 427.46 240.58 C 428.77 241.34 429.93 242.11 431.06 242.96 L 429.71 244.74 C 428.12 243.53 426.47 242.51 424.31 241.38 C 413.36 244.82 405.48 254.47 404.23 265.8 C 406.53 265.34 408.73 265.08 411.18 265.02 L 411.23 267.25 C 408.67 267.31 406.47 267.58 404.06 268.11 C 404.05 268.41 404.03 268.71 404.03 269 C 404.03 278.65 408.8 287.54 416.65 292.9 C 415.25 288.74 414.56 284.81 414.56 280.97 C 414.56 278.79 414.94 276.99 415.33 275.09 C 415.43 274.65 415.52 274.2 415.61 273.73 L 417.8 274.16 C 417.7 274.64 417.61 275.1 417.51 275.54 C 417.12 277.41 416.79 279.02 416.79 280.97 C 416.79 285.33 417.74 289.83 419.69 294.72 C 423.83 296.87 428.31 297.97 433 297.97 C 436.07 297.97 439.07 297.48 441.93 296.54 C 443.05 294.32 443.88 292.24 444.58 289.84 L 446.72 290.46 C 446.21 292.21 445.63 293.8 444.93 295.38 C 446.73 294.57 448.43 293.57 450.03 292.41 C 449.65 291.46 449.23 290.53 448.78 289.61 L 450.77 288.62 C 451.16 289.39 451.51 290.18 451.85 290.98 C 458.3 285.46 461.97 277.54 461.97 269 Z M 464.2 269 C 464.2 278.72 459.78 287.72 452.08 293.68 C 450.17 295.16 448.1 296.39 445.91 297.38 C 444.99 297.8 444.04 298.19 443.07 298.52 C 439.86 299.64 436.47 300.2 433 300.2 C 427.87 300.2 422.78 298.92 418.28 296.51 C 408.11 291.07 401.8 280.53 401.8 269 C 401.8 268.24 401.82 267.65 401.87 267.12 C 402.62 254.1 411.56 242.83 424.09 239.1 C 426.94 238.24 429.94 237.8 433 237.8 C 438.36 237.8 443.63 239.18 448.25 241.79 C 458.09 247.3 464.2 257.73 464.2 269 Z M 430.01 252.8 L 428.54 251.12 C 426.04 253.3 424.1 255.62 421.83 259.11 L 423.7 260.33 C 425.85 257.01 427.68 254.84 430.01 252.8 Z M 426.62 267.25 L 425.9 269.35 C 431.01 271.11 435.48 273.92 439.95 278.18 L 441.49 276.56 C 436.78 272.07 432.05 269.11 426.62 267.25 Z M 441.52 254.14 C 445.7 260.52 448.06 267.52 448.52 274.95 L 446.29 275.09 C 445.85 268.05 443.62 261.41 439.66 255.37 Z" fill="#ffffff" stroke="none" pointer-events="all" style="fill: rgb(255, 255, 255);"/></g><g><g><switch><foreignObject style="overflow: visible; text-align: left;" pointer-events="none" width="100%" height="100%" requiredFeatures="http://www.w3.org/TR/SVG11/feature#Extensibility"><div xmlns="http://www.w3.org/1999/xhtml" style="display: flex; align-items: unsafe flex-start; justify-content: unsafe center; width: 1px; height: 1px; padding-top: 315px; margin-left: 433px;"><div style="box-sizing: border-box; font-size: 0; text-align: center; color: #232F3E; "><div style="display: inline-block; font-size: 12px; font-family: Helvetica; color: #232F3E; line-height: 1.2; pointer-events: all; white-space: nowrap; "><span style="color: rgb(15, 20, 26); font-family: &quot;Amazon Ember&quot;, &quot;Helvetica Neue&quot;, Roboto, Arial, sans-serif; font-size: 14px; text-align: start; background-color: rgb(252, 252, 253);">API Gateway domain name</span></div></div></div></foreignObject><text x="433" y="327" fill="#232F3E" font-family="Helvetica" font-size="12px" text-anchor="middle">API Gateway d...</text></switch></g></g></g><g data-cell-id="4xx-t0KW6O9_L04DhV0j-1"><g transform="translate(0.5,0.5)"><path d="M 278 269 L 387.63 269" fill="none" stroke="#000000" stroke-miterlimit="10" stroke-dasharray="3 3" pointer-events="stroke" style="stroke: light-dark(rgb(0, 0, 0), rgb(255, 255, 255)); animation: 188ms linear 0s infinite normal none running ge-flow-animation-d_ulf7pO5NPwXq0glKS_; stroke-dashoffset: 6;"/><path d="M 392.88 269 L 385.88 272.5 L 387.63 269 L 385.88 265.5 Z" fill="#000000" stroke="#000000" stroke-miterlimit="10" pointer-events="all" style="fill: light-dark(rgb(0, 0, 0), rgb(255, 255, 255)); stroke: light-dark(rgb(0, 0, 0), rgb(255, 255, 255));"/></g></g><g data-cell-id="IrQebchpDwwiGP08tBbD-0"><g transform="translate(0.5,0.5)"><path d="M 600 370 L 678 370 L 678 448 L 600 448 Z" fill="#8c4fff" stroke="none" pointer-events="all" style="fill: rgb(140, 79, 255);"/><path d="M 632.39 426.43 L 635.66 426.43 L 635.66 424.19 L 632.39 424.19 Z M 637.89 426.43 L 641.23 426.43 L 641.23 424.19 L 637.89 424.19 Z M 624.53 380.78 L 610.05 387.97 L 610.05 432.62 L 624.53 437.52 Z M 626.75 394.99 L 626.75 424.19 L 630.09 424.19 L 630.09 426.43 L 626.75 426.43 L 626.75 439.08 C 626.75 439.44 626.58 439.78 626.29 439.99 C 626.1 440.13 625.87 440.2 625.64 440.2 C 625.52 440.2 625.4 440.18 625.29 440.14 L 608.59 434.5 C 608.13 434.34 607.83 433.91 607.83 433.43 L 607.83 387.27 C 607.83 386.84 608.07 386.45 608.45 386.26 L 625.15 377.97 C 625.49 377.8 625.9 377.82 626.23 378.03 C 626.55 378.23 626.75 378.59 626.75 378.98 L 626.75 392.75 L 630.09 392.75 L 630.09 394.99 Z M 643.45 426.43 L 646.79 426.43 L 646.79 424.19 L 643.45 424.19 Z M 643.53 394.99 L 646.79 394.99 L 646.79 392.75 L 643.53 392.75 Z M 637.96 394.99 L 641.23 394.99 L 641.23 392.75 L 637.96 392.75 Z M 632.39 394.99 L 635.66 394.99 L 635.66 392.75 L 632.39 392.75 Z M 667.95 387.97 L 653.47 380.78 L 653.47 437.52 L 667.95 432.62 Z M 670.17 433.43 C 670.17 433.91 669.87 434.34 669.41 434.5 L 652.71 440.14 C 652.6 440.18 652.48 440.2 652.36 440.2 C 652.13 440.2 651.9 440.13 651.71 439.99 C 651.42 439.78 651.25 439.44 651.25 439.08 L 651.25 426.43 L 649.09 426.43 L 649.09 424.19 L 651.25 424.19 L 651.25 394.99 L 649.09 394.99 L 649.09 392.75 L 651.25 392.75 L 651.25 378.98 C 651.25 378.59 651.45 378.23 651.77 378.03 C 652.1 377.82 652.51 377.8 652.85 377.97 L 669.55 386.26 C 669.93 386.45 670.17 386.84 670.17 387.27 Z M 642.27 402.13 L 640.19 401.33 L 634.62 415.92 L 636.7 416.73 Z M 649.81 409.26 C 650.24 408.82 650.24 408.11 649.81 407.67 L 645.35 403.18 L 643.78 404.77 L 647.45 408.47 L 643.78 412.16 L 645.35 413.75 Z M 632.65 413.75 L 628.19 409.26 C 627.76 408.82 627.76 408.11 628.19 407.67 L 632.65 403.18 L 634.22 404.77 L 630.55 408.47 L 634.22 412.16 Z" fill="#ffffff" stroke="none" pointer-events="all" style="fill: rgb(255, 255, 255);"/></g><g><g><switch><foreignObject style="overflow: visible; text-align: left;" pointer-events="none" width="100%" height="100%" requiredFeatures="http://www.w3.org/TR/SVG11/feature#Extensibility"><div xmlns="http://www.w3.org/1999/xhtml" style="display: flex; align-items: unsafe flex-start; justify-content: unsafe center; width: 1px; height: 1px; padding-top: 455px; margin-left: 639px;"><div style="box-sizing: border-box; font-size: 0; text-align: center; color: #232F3E; "><div style="display: inline-block; font-size: 12px; font-family: Helvetica; color: #232F3E; line-height: 1.2; pointer-events: all; white-space: nowrap; ">REST API Gateway<div>/auth-cookies</div><div>/instance/turnoff</div><div>/instance/turnon</div><div>/list-videos</div><div>/playlist/{video-id}</div></div></div></div></foreignObject><text x="639" y="467" fill="#232F3E" font-family="Helvetica" font-size="12px" text-anchor="middle">REST API Gate...</text></switch></g></g></g><g data-cell-id="IrQebchpDwwiGP08tBbD-1"><g transform="translate(0.5,0.5)"><path d="M 472 269 L 536 269 L 536 389.5 L 593.63 389.5" fill="none" stroke="#000000" stroke-miterlimit="10" stroke-dasharray="3 3" pointer-events="stroke" style="stroke: light-dark(rgb(0, 0, 0), rgb(255, 255, 255)); animation: 188ms linear 0s infinite normal none running ge-flow-animation-d_ulf7pO5NPwXq0glKS_; stroke-dashoffset: 6;"/><path d="M 598.88 389.5 L 591.88 393 L 593.63 389.5 L 591.88 386 Z" fill="#000000" stroke="#000000" stroke-miterlimit="10" pointer-events="all" style="fill: light-dark(rgb(0, 0, 0), rgb(255, 255, 255)); stroke: light-dark(rgb(0, 0, 0), rgb(255, 255, 255));"/></g></g><g data-cell-id="Gg1o66smyuq-TfAT2ASj-0"><g transform="translate(0.5,0.5)"><path d="M 199 370 L 279 370 L 279 450 L 199 450 Z" fill="#dd344c" stroke="none" pointer-events="all" style="fill: rgb(221, 52, 76);"/><path d="M 212.65 405.23 L 227.35 405.23 L 227.35 402.97 L 212.65 402.97 Z M 263.24 421.65 L 264.84 423.25 L 256.44 431.63 C 256.22 431.85 255.93 431.96 255.64 431.96 C 255.35 431.96 255.06 431.85 254.84 431.63 L 250.62 427.42 L 252.22 425.82 L 255.64 429.24 Z M 268.44 427.88 C 268.18 430 267.32 431.97 265.94 433.59 C 264.96 434.73 263.72 435.68 262.36 436.33 C 260.53 437.19 258.5 437.52 256.48 437.28 C 254.52 437.04 252.67 436.26 251.12 435.04 C 248.16 432.68 246.66 429.03 247.12 425.27 C 247.55 421.72 249.7 418.62 252.88 416.98 C 254.4 416.19 256.07 415.79 257.76 415.79 C 258.2 415.79 258.64 415.82 259.07 415.87 C 262.62 416.3 265.71 418.47 267.34 421.67 C 268.32 423.58 268.7 425.73 268.44 427.88 Z M 269.36 420.64 C 267.39 416.77 263.64 414.15 259.35 413.63 C 256.75 413.31 254.16 413.78 251.84 414.97 C 248 416.95 245.39 420.7 244.87 425 C 244.32 429.55 246.13 433.96 249.72 436.81 C 251.59 438.29 253.83 439.23 256.21 439.52 C 256.74 439.58 257.26 439.61 257.79 439.61 C 259.7 439.61 261.59 439.19 263.33 438.37 C 264.98 437.59 266.47 436.44 267.66 435.05 C 269.33 433.1 270.38 430.71 270.69 428.15 C 271 425.55 270.54 422.96 269.36 420.64 Z M 223.96 412 L 228.48 412 L 228.48 409.74 L 223.96 409.74 Z M 212.65 412 L 221.7 412 L 221.7 409.74 L 212.65 409.74 Z M 211.68 382.65 L 262.25 382.65 C 263.58 382.65 264.66 383.96 264.66 385.58 L 264.66 393.93 L 261.27 393.93 L 261.27 388.29 C 261.27 387.67 260.77 387.16 260.14 387.16 L 234.14 387.16 C 233.51 387.16 233.01 387.67 233.01 388.29 L 233.01 393.93 L 209.26 393.93 L 209.26 385.58 C 209.26 383.99 210.37 382.65 211.68 382.65 Z M 247.16 393.61 C 249.78 393.61 251.92 395.72 251.92 398.31 C 251.92 400.02 250.97 401.6 249.45 402.42 C 248.01 403.2 246.27 403.19 244.85 402.42 C 243.33 401.6 242.39 400.02 242.39 398.31 C 242.39 395.72 244.53 393.61 247.16 393.61 Z M 209.26 418.1 L 209.26 396.19 L 233.01 396.19 L 233.01 415.39 C 233.01 416.01 233.51 416.52 234.14 416.52 L 245.96 416.52 L 245.96 414.26 L 236.51 414.26 C 236.61 409.74 239.62 405.84 243.94 404.59 C 245.94 405.52 248.33 405.53 250.36 404.59 C 252.82 405.3 254.97 406.95 256.31 409.15 L 258.24 407.98 C 256.87 405.72 254.79 403.96 252.38 402.93 C 253.51 401.68 254.18 400.05 254.18 398.31 C 254.18 394.47 251.03 391.35 247.16 391.35 C 243.28 391.35 240.13 394.47 240.13 398.31 C 240.13 400.04 240.79 401.67 241.91 402.92 C 238.89 404.19 236.53 406.57 235.27 409.51 L 235.27 389.42 L 259.01 389.42 L 259.01 407.48 L 261.27 407.48 L 261.27 396.19 L 264.66 396.19 L 264.67 413.13 L 266.93 413.13 L 266.93 385.58 C 266.93 382.72 264.83 380.39 262.25 380.39 L 211.68 380.39 C 209.1 380.39 207 382.72 207 385.58 L 207 418.1 C 207 420.96 209.1 423.29 211.68 423.29 L 242.05 423.29 L 242.05 421.03 L 211.68 421.03 C 210.37 421.03 209.26 419.69 209.26 418.1 Z" fill="#ffffff" stroke="none" pointer-events="all" style="fill: rgb(255, 255, 255);"/></g><g><g><switch><foreignObject style="overflow: visible; text-align: left;" pointer-events="none" width="100%" height="100%" requiredFeatures="http://www.w3.org/TR/SVG11/feature#Extensibility"><div xmlns="http://www.w3.org/1999/xhtml" style="display: flex; align-items: unsafe flex-start; justify-content: unsafe center; width: 1px; height: 1px; padding-top: 457px; margin-left: 239px;"><div style="box-sizing: border-box; font-size: 0; text-align: center; color: #232F3E; "><div style="display: inline-block; font-size: 12px; font-family: Helvetica; color: #232F3E; line-height: 1.2; pointer-events: all; white-space: nowrap; ">Cognito User Pool</div></div></div></foreignObject><text x="239" y="469" fill="#232F3E" font-family="Helvetica" font-size="12px" text-anchor="middle">Cognito User...</text></switch></g></g></g><g data-cell-id="Gg1o66smyuq-TfAT2ASj-1"><g transform="translate(0.5,0.5)"><path d="M 100 190 L 100 410 L 192.63 410" fill="none" stroke="#000000" stroke-miterlimit="10" stroke-dasharray="3 3" pointer-events="stroke" style="stroke: light-dark(rgb(0, 0, 0), rgb(255, 255, 255)); animation: 188ms linear 0s infinite normal none running ge-flow-animation-d_ulf7pO5NPwXq0glKS_; stroke-dashoffset: 6;"/><path d="M 197.88 410 L 190.88 413.5 L 192.63 410 L 190.88 406.5 Z" fill="#000000" stroke="#000000" stroke-miterlimit="10" pointer-events="all" style="fill: light-dark(rgb(0, 0, 0), rgb(255, 255, 255)); stroke: light-dark(rgb(0, 0, 0), rgb(255, 255, 255));"/></g></g><g data-cell-id="vE4D059XfVo267nUD2CP-0"><g transform="translate(0.5,0.5)"><path d="M 600 409 L 600 410 L 285.37 410" fill="none" stroke="#000000" stroke-miterlimit="10" stroke-dasharray="3 3" pointer-events="stroke" style="stroke: light-dark(rgb(0, 0, 0), rgb(255, 255, 255)); animation: 188ms linear 0s infinite normal none running ge-flow-animation-d_ulf7pO5NPwXq0glKS_; stroke-dashoffset: 6;"/><path d="M 280.12 410 L 287.12 406.5 L 285.37 410 L 287.12 413.5 Z" fill="#000000" stroke="#000000" stroke-miterlimit="10" pointer-events="all" style="fill: light-dark(rgb(0, 0, 0), rgb(255, 255, 255)); stroke: light-dark(rgb(0, 0, 0), rgb(255, 255, 255));"/></g></g><g data-cell-id="pggGnk3pZa4vFOZQuAN2-0"><g transform="translate(0.5,0.5)"><path d="M 814 71 L 892 71 L 892 149 L 814 149 Z" fill="#7aa116" stroke="none" pointer-events="all" style="fill: rgb(122, 161, 22);"/><path d="M 876.28 113.22 L 876.71 110.21 C 880.66 112.57 880.71 113.55 880.71 113.58 C 880.7 113.58 880.03 114.14 876.28 113.22 Z M 874.12 112.62 C 867.3 110.56 857.8 106.2 853.96 104.39 C 853.96 104.37 853.96 104.36 853.96 104.34 C 853.96 102.86 852.76 101.66 851.28 101.66 C 849.81 101.66 848.61 102.86 848.61 104.34 C 848.61 105.82 849.81 107.02 851.28 107.02 C 851.93 107.02 852.52 106.78 852.98 106.39 C 857.51 108.53 866.93 112.82 873.8 114.85 L 871.08 134.03 C 871.07 134.08 871.07 134.13 871.07 134.18 C 871.07 135.87 863.6 138.97 851.39 138.97 C 839.05 138.97 831.49 135.87 831.49 134.18 C 831.49 134.13 831.49 134.08 831.48 134.03 L 825.81 92.57 C 830.72 95.95 841.29 97.74 851.39 97.74 C 861.48 97.74 872.03 95.96 876.96 92.59 Z M 825.21 88.25 C 825.29 86.78 833.71 81.03 851.39 81.03 C 869.07 81.03 877.5 86.78 877.58 88.25 L 877.58 88.75 C 876.61 92.04 865.69 95.51 851.39 95.51 C 837.07 95.51 826.15 92.02 825.21 88.73 Z M 879.81 88.27 C 879.81 84.41 868.74 78.8 851.39 78.8 C 834.05 78.8 822.98 84.41 822.98 88.27 L 823.08 89.11 L 829.27 134.27 C 829.41 139.32 842.88 141.2 851.39 141.2 C 861.94 141.2 873.15 138.77 873.3 134.27 L 875.97 115.44 C 877.45 115.8 878.68 115.98 879.66 115.98 C 880.98 115.98 881.87 115.66 882.41 115.01 C 882.85 114.48 883.02 113.85 882.89 113.16 C 882.61 111.62 880.77 109.96 877.05 107.83 L 879.69 89.16 Z" fill="#ffffff" stroke="none" pointer-events="all" style="fill: rgb(255, 255, 255);"/></g><g><g><switch><foreignObject style="overflow: visible; text-align: left;" pointer-events="none" width="100%" height="100%" requiredFeatures="http://www.w3.org/TR/SVG11/feature#Extensibility"><div xmlns="http://www.w3.org/1999/xhtml" style="display: flex; align-items: unsafe flex-start; justify-content: unsafe center; width: 1px; height: 1px; padding-top: 156px; margin-left: 853px;"><div style="box-sizing: border-box; font-size: 0; text-align: center; color: #232F3E; "><div style="display: inline-block; font-size: 12px; font-family: Helvetica; color: #232F3E; line-height: 1.2; pointer-events: all; white-space: nowrap; "><b style="color: rgb(255, 0, 0); text-align: left; text-wrap-mode: wrap;">[<span style="color: rgb(0, 0, 0);"><font style="color: rgb(255, 0, 0);">YourDomain</font></span>.com]</b></div></div></div></foreignObject><text x="853" y="168" fill="#232F3E" font-family="Helvetica" font-size="12px" text-anchor="middle">[YourDomain.c...</text></switch></g></g></g><g data-cell-id="9ngkclMu861Oq3p9O_7Q-0"><g transform="translate(0.5,0.5)"><path d="M 600 230 L 678 230 L 678 308 L 600 308 Z" fill="#ed7100" stroke="none" pointer-events="all" style="fill: rgb(237, 113, 0);"/><path d="M 625.67 297.97 L 611.83 297.97 L 627.13 265.99 L 634.06 280.26 Z M 628.13 262.93 C 627.94 262.55 627.55 262.3 627.13 262.3 L 627.12 262.3 C 626.69 262.3 626.3 262.55 626.12 262.94 L 609.05 298.61 C 608.89 298.95 608.91 299.36 609.11 299.68 C 609.32 300 609.68 300.2 610.06 300.2 L 626.37 300.2 C 626.8 300.2 627.2 299.95 627.38 299.56 L 636.31 280.73 C 636.46 280.43 636.46 280.07 636.31 279.77 Z M 666.88 297.97 L 653.13 297.97 L 631.08 251.81 C 630.9 251.42 630.5 251.17 630.07 251.17 L 621.08 251.17 L 621.09 240.03 L 638.72 240.03 L 660.67 286.19 C 660.85 286.58 661.25 286.83 661.68 286.83 L 666.88 286.83 Z M 668 284.6 L 662.38 284.6 L 640.43 238.44 C 640.25 238.05 639.85 237.8 639.42 237.8 L 619.97 237.8 C 619.36 237.8 618.86 238.3 618.85 238.91 L 618.84 252.28 C 618.84 252.58 618.96 252.86 619.17 253.07 C 619.38 253.28 619.66 253.4 619.96 253.4 L 629.37 253.4 L 651.42 299.56 C 651.61 299.95 652 300.2 652.43 300.2 L 668 300.2 C 668.61 300.2 669.11 299.7 669.11 299.09 L 669.11 285.71 C 669.11 285.1 668.61 284.6 668 284.6 Z" fill="#ffffff" stroke="none" pointer-events="all" style="fill: rgb(255, 255, 255);"/></g><g><g><switch><foreignObject style="overflow: visible; text-align: left;" pointer-events="none" width="100%" height="100%" requiredFeatures="http://www.w3.org/TR/SVG11/feature#Extensibility"><div xmlns="http://www.w3.org/1999/xhtml" style="display: flex; align-items: unsafe flex-start; justify-content: unsafe center; width: 1px; height: 1px; padding-top: 315px; margin-left: 639px;"><div style="box-sizing: border-box; font-size: 0; text-align: center; color: #232F3E; "><div style="display: inline-block; font-size: 12px; font-family: Helvetica; color: #232F3E; line-height: 1.2; pointer-events: all; white-space: nowrap; "><span style="color: rgb(255, 0, 0); font-weight: 700; text-align: left; text-wrap-mode: wrap;">[YourLambdaFunction]</span></div></div></div></foreignObject><text x="639" y="327" fill="#232F3E" font-family="Helvetica" font-size="12px" text-anchor="middle">[YourLambdaFu...</text></switch></g></g></g><g data-cell-id="9ngkclMu861Oq3p9O_7Q-1"><g transform="translate(0.5,0.5)"><path d="M 678 269 L 780 269 L 807.63 269" fill="none" stroke="#000000" stroke-miterlimit="10" stroke-dasharray="3 3" pointer-events="stroke" style="stroke: light-dark(rgb(0, 0, 0), rgb(255, 255, 255)); animation: 188ms linear 0s infinite normal none running ge-flow-animation-d_ulf7pO5NPwXq0glKS_; stroke-dashoffset: 6;"/><path d="M 812.88 269 L 805.88 272.5 L 807.63 269 L 805.88 265.5 Z" fill="#000000" stroke="#000000" stroke-miterlimit="10" pointer-events="all" style="fill: light-dark(rgb(0, 0, 0), rgb(255, 255, 255)); stroke: light-dark(rgb(0, 0, 0), rgb(255, 255, 255));"/></g></g><g data-cell-id="h5Quaatg6-M9TR4iz_2Z-0"><g transform="translate(0.5,0.5)"><path d="M 678 129.5 L 746 129.5 L 746 249.5 L 807.63 249.5" fill="none" stroke="#000000" stroke-miterlimit="10" stroke-dasharray="3 3" pointer-events="stroke" style="stroke: light-dark(rgb(0, 0, 0), rgb(255, 255, 255)); animation: 188ms linear 0s infinite normal none running ge-flow-animation-d_ulf7pO5NPwXq0glKS_; stroke-dashoffset: 6;"/><path d="M 812.88 249.5 L 805.88 253 L 807.63 249.5 L 805.88 246 Z" fill="#000000" stroke="#000000" stroke-miterlimit="10" pointer-events="all" style="fill: light-dark(rgb(0, 0, 0), rgb(255, 255, 255)); stroke: light-dark(rgb(0, 0, 0), rgb(255, 255, 255));"/></g></g></g></g></g></svg>