<?xml version="1.0" encoding="UTF-8"?>
<!DOCTYPE svg PUBLIC "-//W3C//DTD SVG 1.1//EN" "http://www.w3.org/Graphics/SVG/1.1/DTD/svg11.dtd">
<svg xmlns="http://www.w3.org/2000/svg" style="background: #ffffff; background-color: light-dark(#ffffff, var(--ge-dark-color, #121212)); color-scheme: light dark;" xmlns:xlink="http://www.w3.org/1999/xlink" version="1.1" width="1001px" height="311px" viewBox="0 0 1001 311"><defs><style>@keyframes ge-flow-animation-Khzl9P-bm8aJHSub_1FD {&#xa;  to {&#xa;    stroke-dashoffset: 0;&#xa;  }&#xa;}</style></defs><rect fill="#ffffff" width="100%" height="100%" x="0" y="0" style="fill: light-dark(#ffffff, var(--ge-dark-color, #121212));"/><g><g data-cell-id="0"><g data-cell-id="1"><g data-cell-id="4696j8L3x-BGka-xXOSF-1"><g transform="translate(0.5,0.5)"><rect x="0" y="0" width="1000" height="310" fill="#ffffff" stroke="#000000" pointer-events="all" style="fill: light-dark(#ffffff, var(--ge-dark-color, #121212)); stroke: light-dark(rgb(0, 0, 0), rgb(255, 255, 255));"/></g></g><g data-cell-id="IbEPPMA1MatiAJZiOtRl-1"><g transform="translate(0.5,0.5)"><path d="M 40 118 L 118 118 L 118 196 L 40 196 Z" fill="#8c4fff" stroke="none" pointer-events="all" style="fill: rgb(140, 79, 255);"/><path d="M 88.66 157.82 C 89.49 158.58 89.9 159.6 89.9 160.88 C 89.9 162.27 89.4 163.38 88.4 164.21 C 87.4 165.04 86.05 165.46 84.37 165.46 C 83.03 165.46 81.71 165.17 80.41 164.6 L 80.41 162.9 C 81.95 163.41 83.27 163.67 84.37 163.67 C 85.44 163.67 86.27 163.43 86.86 162.94 C 87.44 162.46 87.73 161.77 87.73 160.88 C 87.73 159.16 86.64 158.3 84.47 158.3 C 83.79 158.3 83.12 158.34 82.45 158.41 L 82.45 157.01 L 86.92 152.13 L 80.62 152.13 L 80.62 150.38 L 89.28 150.38 L 89.28 152.07 L 84.9 156.71 C 84.97 156.69 85.04 156.69 85.11 156.69 L 85.32 156.69 C 86.73 156.69 87.84 157.07 88.66 157.82 M 76.3 157.45 C 77.17 158.26 77.6 159.37 77.6 160.79 C 77.6 162.18 77.1 163.31 76.09 164.17 C 75.08 165.03 73.76 165.46 72.11 165.46 C 70.66 165.46 69.31 165.17 68.05 164.6 L 68.05 162.9 C 69.62 163.41 70.97 163.67 72.09 163.67 C 73.17 163.67 73.99 163.42 74.57 162.93 C 75.14 162.44 75.43 161.74 75.43 160.81 C 75.43 159.81 75.16 159.08 74.62 158.62 C 74.08 158.17 73.2 157.94 71.98 157.94 C 71.1 157.94 70 158.01 68.68 158.15 L 68.68 156.75 L 69.09 150.38 L 76.86 150.38 L 76.86 152.13 L 70.88 152.13 L 70.6 156.45 C 71.38 156.31 72.08 156.24 72.7 156.24 C 74.24 156.24 75.44 156.64 76.3 157.45 M 92.29 173.05 C 86.9 174.02 82.17 176.22 79 178.01 C 75.83 176.22 71.1 174.02 65.71 173.05 C 64.19 172.78 56.62 171.2 56.62 166.83 C 56.62 164.8 57.34 163.45 58.74 161.05 C 60.4 158.18 62.48 154.61 62.48 149.46 C 62.48 145.78 61.51 142.25 59.61 138.96 C 59.83 138.69 60.06 138.41 60.29 138.13 C 63.11 139.54 66.04 140.25 69.03 140.25 C 72.67 140.25 76.03 139.29 79 137.4 C 81.97 139.29 85.32 140.25 88.97 140.25 C 91.95 140.25 94.89 139.54 97.71 138.13 C 97.94 138.41 98.17 138.69 98.39 138.96 C 96.49 142.25 95.52 145.78 95.52 149.46 C 95.52 154.61 97.6 158.18 99.26 161.06 C 100.65 163.45 101.38 164.8 101.38 166.83 C 101.38 171.2 93.81 172.78 92.29 173.05 M 97.75 149.46 C 97.75 145.95 98.74 142.58 100.69 139.46 C 100.94 139.05 100.91 138.53 100.61 138.16 C 100.04 137.47 99.45 136.74 98.86 136.02 C 98.53 135.6 97.94 135.48 97.46 135.74 C 94.72 137.26 91.87 138.02 88.97 138.02 C 85.48 138.02 82.42 137.09 79.63 135.15 C 79.25 134.89 78.75 134.89 78.37 135.15 C 75.58 137.09 72.52 138.02 69.03 138.02 C 66.13 138.02 63.27 137.26 60.54 135.74 C 60.06 135.48 59.47 135.6 59.13 136.02 C 58.55 136.74 57.96 137.47 57.39 138.16 C 57.09 138.53 57.06 139.05 57.31 139.46 C 59.26 142.58 60.25 145.95 60.25 149.46 C 60.25 154.01 58.35 157.29 56.81 159.94 C 55.31 162.52 54.39 164.24 54.39 166.83 C 54.39 172.82 62.75 174.78 65.31 175.24 C 70.72 176.21 75.43 178.5 78.44 180.25 C 78.61 180.36 78.81 180.41 79 180.41 C 79.19 180.41 79.39 180.36 79.56 180.25 C 82.57 178.5 87.28 176.21 92.69 175.24 C 95.25 174.78 103.6 172.82 103.6 166.83 C 103.6 164.24 102.69 162.52 101.19 159.94 C 99.65 157.29 97.75 154.01 97.75 149.46 M 93.45 179.48 C 86.63 180.71 80.92 184.37 79 185.71 C 77.08 184.37 71.37 180.71 64.55 179.48 C 51.13 177.07 50.09 169.18 50.09 166.83 C 50.09 162.94 51.62 160.32 53.09 157.78 C 54.5 155.36 55.95 152.85 55.95 149.46 C 55.95 144.1 52.86 140.31 51.33 138.77 C 52.93 136.82 56.99 131.88 58.99 129.3 C 62.02 132.16 65.54 133.72 69.03 133.72 C 72.89 133.72 76.09 132.15 79 128.79 C 81.91 132.15 85.1 133.72 88.97 133.72 C 92.45 133.72 95.98 132.16 99.01 129.3 C 101.01 131.88 105.06 136.82 106.67 138.77 C 105.14 140.31 102.05 144.1 102.05 149.46 C 102.05 152.85 103.5 155.36 104.91 157.78 C 106.38 160.32 107.91 162.94 107.91 166.83 C 107.91 169.18 106.86 177.07 93.45 179.48 M 106.83 156.66 C 105.46 154.29 104.27 152.25 104.27 149.46 C 104.27 143.58 108.85 139.78 108.89 139.74 C 109.12 139.55 109.27 139.28 109.3 138.99 C 109.33 138.69 109.24 138.4 109.05 138.17 C 108.98 138.08 101.69 129.24 100.02 126.95 C 99.82 126.69 99.52 126.52 99.19 126.5 C 98.86 126.47 98.54 126.61 98.31 126.85 C 95.51 129.84 92.19 131.5 88.97 131.5 C 85.41 131.5 82.61 129.91 79.88 126.35 C 79.46 125.8 78.54 125.8 78.12 126.35 C 75.39 129.91 72.59 131.5 69.03 131.5 C 65.81 131.5 62.49 129.84 59.69 126.85 C 59.46 126.61 59.14 126.47 58.81 126.5 C 58.48 126.52 58.17 126.69 57.98 126.95 C 56.31 129.24 49.02 138.08 48.95 138.17 C 48.76 138.4 48.67 138.69 48.7 138.99 C 48.73 139.28 48.87 139.55 49.1 139.74 C 49.15 139.78 53.73 143.58 53.73 149.46 C 53.73 152.25 52.54 154.29 51.17 156.66 C 49.62 159.33 47.87 162.35 47.87 166.83 C 47.87 174.29 53.96 179.84 64.16 181.67 C 71.84 183.05 78.26 187.92 78.32 187.97 C 78.52 188.12 78.76 188.2 79 188.2 C 79.24 188.2 79.48 188.12 79.68 187.97 C 79.74 187.92 86.14 183.05 93.84 181.67 C 104.04 179.84 110.13 174.29 110.13 166.83 C 110.13 162.35 108.38 159.33 106.83 156.66" fill="#ffffff" stroke="none" pointer-events="all" style="fill: rgb(255, 255, 255);"/></g><g><g><switch><foreignObject style="overflow: visible; text-align: left;" pointer-events="none" width="100%" height="100%" requiredFeatures="http://www.w3.org/TR/SVG11/feature#Extensibility"><div xmlns="http://www.w3.org/1999/xhtml" style="display: flex; align-items: unsafe flex-start; justify-content: unsafe center; width: 1px; height: 1px; padding-top: 203px; margin-left: 79px;"><div style="box-sizing: border-box; font-size: 0; text-align: center; color: #232F3E; "><div style="display: inline-block; font-size: 12px; font-family: Helvetica; color: #232F3E; line-height: 1.2; pointer-events: all; white-space: nowrap; "><b><font style="color: rgb(255, 0, 0);">YourDomain</font></b>.com<div>www.<b><font style="color: rgb(255, 0, 0);">YourDomain</font></b>.com</div></div></div></div></foreignObject><text x="79" y="215" fill="#232F3E" font-family="Helvetica" font-size="12px" text-anchor="middle">YourDomain.co...</text></switch></g></g></g><g data-cell-id="VMc2PgqY7GbA8rLoA2b2-1"><g transform="translate(0.5,0.5)"><path d="M 230 118 L 308 118 L 308 196 L 230 196 Z" fill="#8c4fff" stroke="none" pointer-events="all" style="fill: rgb(140, 79, 255);"/><path d="M 285.85 170.51 C 285.85 168.67 284.35 167.17 282.51 167.17 C 280.66 167.17 279.16 168.67 279.16 170.51 C 279.16 172.35 280.66 173.85 282.51 173.85 C 284.35 173.85 285.85 172.35 285.85 170.51 Z M 288.08 170.51 C 288.08 173.58 285.58 176.08 282.51 176.08 C 279.44 176.08 276.94 173.58 276.94 170.51 C 276.94 167.44 279.44 164.94 282.51 164.94 C 285.58 164.94 288.08 167.44 288.08 170.51 Z M 258.29 154.43 C 258.29 152.59 256.79 151.09 254.95 151.09 C 253.11 151.09 251.61 152.59 251.61 154.43 C 251.61 156.27 253.11 157.77 254.95 157.77 C 256.79 157.77 258.29 156.27 258.29 154.43 Z M 260.52 154.43 C 260.52 157.5 258.02 160 254.95 160 C 251.88 160 249.38 157.5 249.38 154.43 C 249.38 151.36 251.88 148.86 254.95 148.86 C 258.02 148.86 260.52 151.36 260.52 154.43 Z M 268.7 136.95 C 268.7 138.79 270.2 140.29 272.04 140.29 C 273.89 140.29 275.38 138.79 275.38 136.95 C 275.38 135.11 273.89 133.61 272.04 133.61 C 270.2 133.61 268.7 135.11 268.7 136.95 Z M 266.47 136.95 C 266.47 133.88 268.97 131.38 272.04 131.38 C 275.11 131.38 277.61 133.88 277.61 136.95 C 277.61 140.02 275.11 142.52 272.04 142.52 C 268.97 142.52 266.47 140.02 266.47 136.95 Z M 297.97 157 C 297.97 146.67 292.43 137.11 283.5 131.94 C 281.9 132.26 280.35 132.7 278.42 133.4 L 277.66 131.31 C 278.67 130.94 279.57 130.65 280.44 130.4 C 276.85 128.85 272.95 128.03 269 128.03 C 267.12 128.03 265.27 128.22 263.46 128.58 C 264.77 129.34 265.93 130.11 267.06 130.96 L 265.71 132.74 C 264.12 131.53 262.47 130.51 260.31 129.38 C 249.36 132.82 241.48 142.47 240.23 153.8 C 242.53 153.34 244.73 153.08 247.18 153.02 L 247.23 155.25 C 244.67 155.31 242.47 155.58 240.06 156.11 C 240.05 156.41 240.03 156.71 240.03 157 C 240.03 166.65 244.8 175.54 252.65 180.9 C 251.25 176.74 250.56 172.81 250.56 168.97 C 250.56 166.79 250.94 164.99 251.33 163.09 C 251.43 162.65 251.52 162.2 251.61 161.73 L 253.8 162.16 C 253.7 162.64 253.61 163.1 253.51 163.54 C 253.12 165.41 252.79 167.02 252.79 168.97 C 252.79 173.33 253.74 177.83 255.69 182.72 C 259.83 184.87 264.31 185.97 269 185.97 C 272.07 185.97 275.07 185.48 277.93 184.54 C 279.05 182.32 279.88 180.24 280.58 177.84 L 282.72 178.46 C 282.21 180.21 281.63 181.8 280.93 183.38 C 282.73 182.57 284.43 181.57 286.03 180.41 C 285.65 179.46 285.23 178.53 284.78 177.61 L 286.77 176.62 C 287.16 177.39 287.51 178.18 287.85 178.98 C 294.3 173.46 297.97 165.54 297.97 157 Z M 300.2 157 C 300.2 166.72 295.78 175.72 288.08 181.68 C 286.17 183.16 284.1 184.39 281.91 185.38 C 280.99 185.8 280.04 186.19 279.07 186.52 C 275.86 187.64 272.47 188.2 269 188.2 C 263.87 188.2 258.78 186.92 254.28 184.51 C 244.11 179.07 237.8 168.53 237.8 157 C 237.8 156.24 237.82 155.65 237.87 155.12 C 238.62 142.1 247.56 130.83 260.09 127.1 C 262.94 126.24 265.94 125.8 269 125.8 C 274.36 125.8 279.63 127.18 284.25 129.79 C 294.09 135.3 300.2 145.73 300.2 157 Z M 266.01 140.8 L 264.54 139.12 C 262.04 141.3 260.1 143.62 257.83 147.11 L 259.7 148.33 C 261.85 145.01 263.68 142.84 266.01 140.8 Z M 262.62 155.25 L 261.9 157.35 C 267.01 159.11 271.48 161.92 275.95 166.18 L 277.49 164.56 C 272.78 160.07 268.05 157.11 262.62 155.25 Z M 277.52 142.14 C 281.7 148.52 284.06 155.52 284.52 162.95 L 282.29 163.09 C 281.85 156.05 279.62 149.41 275.66 143.37 Z" fill="#ffffff" stroke="none" pointer-events="all" style="fill: rgb(255, 255, 255);"/></g><g><g><switch><foreignObject style="overflow: visible; text-align: left;" pointer-events="none" width="100%" height="100%" requiredFeatures="http://www.w3.org/TR/SVG11/feature#Extensibility"><div xmlns="http://www.w3.org/1999/xhtml" style="display: flex; align-items: unsafe flex-start; justify-content: unsafe center; width: 1px; height: 1px; padding-top: 203px; margin-left: 269px;"><div style="box-sizing: border-box; font-size: 0; text-align: center; color: #232F3E; "><div style="display: inline-block; font-size: 12px; font-family: Helvetica; color: #232F3E; line-height: 1.2; pointer-events: all; white-space: nowrap; "><span style="font-family: &quot;Amazon Ember&quot;, &quot;Helvetica Neue&quot;, Roboto, Arial, sans-serif; text-align: start; background-color: rgb(252, 252, 253);"><b style=""><font style="color: rgb(255, 0, 0);">[YourDomain]</font></b><font color="#0f141a" style="color: rgb(15, 20, 26);"><font> </font><span style="font-size: 14px;">distribution</span></font></span></div></div></div></foreignObject><text x="269" y="215" fill="#232F3E" font-family="Helvetica" font-size="12px" text-anchor="middle">[YourDomain]...</text></switch></g></g></g><g data-cell-id="l1phX3eiIDlAOPqcjFYc-1"><g transform="translate(0.5,0.5)"><path d="M 480 40 L 558 40 L 558 118 L 480 118 Z" fill="#7aa116" stroke="none" pointer-events="all" style="fill: rgb(122, 161, 22);"/><path d="M 542.28 82.22 L 542.71 79.21 C 546.66 81.57 546.71 82.55 546.71 82.58 C 546.7 82.58 546.03 83.14 542.28 82.22 Z M 540.12 81.62 C 533.3 79.56 523.8 75.2 519.96 73.39 C 519.96 73.37 519.96 73.36 519.96 73.34 C 519.96 71.86 518.76 70.66 517.28 70.66 C 515.81 70.66 514.61 71.86 514.61 73.34 C 514.61 74.82 515.81 76.02 517.28 76.02 C 517.93 76.02 518.52 75.78 518.98 75.39 C 523.51 77.53 532.93 81.82 539.8 83.85 L 537.08 103.03 C 537.07 103.08 537.07 103.13 537.07 103.18 C 537.07 104.87 529.6 107.97 517.39 107.97 C 505.05 107.97 497.49 104.87 497.49 103.18 C 497.49 103.13 497.49 103.08 497.48 103.03 L 491.81 61.57 C 496.72 64.95 507.29 66.74 517.39 66.74 C 527.48 66.74 538.03 64.96 542.96 61.59 Z M 491.21 57.25 C 491.29 55.78 499.71 50.03 517.39 50.03 C 535.07 50.03 543.5 55.78 543.58 57.25 L 543.58 57.75 C 542.61 61.04 531.69 64.51 517.39 64.51 C 503.07 64.51 492.15 61.02 491.21 57.73 Z M 545.81 57.27 C 545.81 53.41 534.74 47.8 517.39 47.8 C 500.05 47.8 488.98 53.41 488.98 57.27 L 489.08 58.11 L 495.27 103.27 C 495.41 108.32 508.88 110.2 517.39 110.2 C 527.94 110.2 539.15 107.77 539.3 103.27 L 541.97 84.44 C 543.45 84.8 544.68 84.98 545.66 84.98 C 546.98 84.98 547.87 84.66 548.41 84.01 C 548.85 83.48 549.02 82.85 548.89 82.16 C 548.61 80.62 546.77 78.96 543.05 76.83 L 545.69 58.16 Z" fill="#ffffff" stroke="none" pointer-events="all" style="fill: rgb(255, 255, 255);"/></g><g><g><switch><foreignObject style="overflow: visible; text-align: left;" pointer-events="none" width="100%" height="100%" requiredFeatures="http://www.w3.org/TR/SVG11/feature#Extensibility"><div xmlns="http://www.w3.org/1999/xhtml" style="display: flex; align-items: unsafe flex-start; justify-content: unsafe center; width: 1px; height: 1px; padding-top: 125px; margin-left: 519px;"><div style="box-sizing: border-box; font-size: 0; text-align: center; color: #232F3E; "><div style="display: inline-block; font-size: 12px; font-family: Helvetica; color: #232F3E; line-height: 1.2; pointer-events: all; white-space: nowrap; "><b style="color: rgb(255, 0, 0); text-align: left; text-wrap-mode: wrap;">[<span style="color: rgb(0, 0, 0);"><font style="color: rgb(255, 0, 0);">YourDomain</font></span>.com]</b></div></div></div></foreignObject><text x="519" y="137" fill="#232F3E" font-family="Helvetica" font-size="12px" text-anchor="middle">[YourDomain.c...</text></switch></g></g></g><g data-cell-id="JNllzUU_uQ5RXiVuc4_U-1"><g transform="translate(0.5,0.5)"><path d="M 480 180 L 558 180 L 558 258 L 480 258 Z" fill="#7aa116" stroke="none" pointer-events="all" style="fill: rgb(122, 161, 22);"/><path d="M 542.28 222.22 L 542.71 219.21 C 546.66 221.57 546.71 222.55 546.71 222.58 C 546.7 222.58 546.03 223.14 542.28 222.22 Z M 540.12 221.62 C 533.3 219.56 523.8 215.2 519.96 213.39 C 519.96 213.37 519.96 213.36 519.96 213.34 C 519.96 211.86 518.76 210.66 517.28 210.66 C 515.81 210.66 514.61 211.86 514.61 213.34 C 514.61 214.82 515.81 216.02 517.28 216.02 C 517.93 216.02 518.52 215.78 518.98 215.39 C 523.51 217.53 532.93 221.82 539.8 223.85 L 537.08 243.03 C 537.07 243.08 537.07 243.13 537.07 243.18 C 537.07 244.87 529.6 247.97 517.39 247.97 C 505.05 247.97 497.49 244.87 497.49 243.18 C 497.49 243.13 497.49 243.08 497.48 243.03 L 491.81 201.57 C 496.72 204.95 507.29 206.74 517.39 206.74 C 527.48 206.74 538.03 204.96 542.96 201.59 Z M 491.21 197.25 C 491.29 195.78 499.71 190.03 517.39 190.03 C 535.07 190.03 543.5 195.78 543.58 197.25 L 543.58 197.75 C 542.61 201.04 531.69 204.51 517.39 204.51 C 503.07 204.51 492.15 201.02 491.21 197.73 Z M 545.81 197.27 C 545.81 193.41 534.74 187.8 517.39 187.8 C 500.05 187.8 488.98 193.41 488.98 197.27 L 489.08 198.11 L 495.27 243.27 C 495.41 248.32 508.88 250.2 517.39 250.2 C 527.94 250.2 539.15 247.77 539.3 243.27 L 541.97 224.44 C 543.45 224.8 544.68 224.98 545.66 224.98 C 546.98 224.98 547.87 224.66 548.41 224.01 C 548.85 223.49 549.02 222.85 548.89 222.16 C 548.61 220.62 546.77 218.96 543.05 216.83 L 545.69 198.16 Z" fill="#ffffff" stroke="none" pointer-events="all" style="fill: rgb(255, 255, 255);"/></g><g><g><switch><foreignObject style="overflow: visible; text-align: left;" pointer-events="none" width="100%" height="100%" requiredFeatures="http://www.w3.org/TR/SVG11/feature#Extensibility"><div xmlns="http://www.w3.org/1999/xhtml" style="display: flex; align-items: unsafe flex-start; justify-content: unsafe center; width: 1px; height: 1px; padding-top: 265px; margin-left: 519px;"><div style="box-sizing: border-box; font-size: 0; text-align: center; color: #232F3E; "><div style="display: inline-block; font-size: 12px; font-family: Helvetica; color: #232F3E; line-height: 1.2; pointer-events: all; white-space: nowrap; "><span style="text-wrap-mode: wrap;"><b style=""><font style="color: rgb(255, 0, 0);">[</font></b></span><b style="color: rgb(0, 0, 0); text-align: left; text-wrap-mode: wrap;"><font style="color: rgb(255, 0, 0);">OwncastSegments</font></b><span style="color: rgb(0, 0, 0); text-align: left; text-wrap-mode: wrap; background-color: transparent;"><b><font style="color: rgb(255, 0, 0);">BucketName</font></b></span><span style="text-wrap-mode: wrap;"><b style=""><font style="color: rgb(255, 0, 0);">]</font></b></span></div></div></div></foreignObject><text x="519" y="277" fill="#232F3E" font-family="Helvetica" font-size="12px" text-anchor="middle">[OwncastSegme...</text></switch></g></g></g><g data-cell-id="Ysk3cV_EIl1qJ6UM2CAl-1"><g transform="translate(0.5,0.5)"><path d="M 118 157 L 221.88 157" fill="none" stroke="#545b64" stroke-miterlimit="10" stroke-dasharray="3 3" pointer-events="stroke" style="stroke: rgb(84, 91, 100); animation: 188ms linear 0s infinite normal none running ge-flow-animation-Khzl9P-bm8aJHSub_1FD; stroke-dashoffset: 6;"/><path d="M 228.88 157 L 221.88 160.5 L 221.88 153.5 Z" fill="#545b64" stroke="#545b64" stroke-miterlimit="10" pointer-events="all" style="fill: rgb(84, 91, 100); stroke: rgb(84, 91, 100);"/></g><g data-cell-id="Ysk3cV_EIl1qJ6UM2CAl-2"><g><g><switch><foreignObject style="overflow: visible; text-align: left;" pointer-events="none" width="100%" height="100%" requiredFeatures="http://www.w3.org/TR/SVG11/feature#Extensibility"><div xmlns="http://www.w3.org/1999/xhtml" style="display: flex; align-items: unsafe center; justify-content: unsafe center; width: 1px; height: 1px; padding-top: 158px; margin-left: 176px;"><div style="box-sizing: border-box; font-size: 0; text-align: center; color: #000000; background-color: #ffffff; "><div style="display: inline-block; font-size: 11px; font-family: Helvetica; color: light-dark(#000000, #ffffff); line-height: 1.2; pointer-events: all; background-color: light-dark(#ffffff, var(--ge-dark-color, #121212)); white-space: nowrap; ">Record Alias</div></div></div></foreignObject><text x="176" y="161" fill="light-dark(#000000, #ffffff)" font-family="Helvetica" font-size="11px" text-anchor="middle">Record Alias</text></switch></g></g></g></g><g data-cell-id="iXkQexzd8ymgKwKsBB_q-1"><g transform="translate(0.5,0.5)"><path d="M 308 137.5 L 394 137.5 L 394 79 L 471.88 79" fill="none" stroke="#545b64" stroke-miterlimit="10" stroke-dasharray="3 3" pointer-events="stroke" style="stroke: rgb(84, 91, 100); animation: 188ms linear 0s infinite normal none running ge-flow-animation-Khzl9P-bm8aJHSub_1FD; stroke-dashoffset: 6;"/><path d="M 478.88 79 L 471.88 82.5 L 471.88 75.5 Z" fill="#545b64" stroke="#545b64" stroke-miterlimit="10" pointer-events="all" style="fill: rgb(84, 91, 100); stroke: rgb(84, 91, 100);"/></g><g data-cell-id="iXkQexzd8ymgKwKsBB_q-2"><g><g><switch><foreignObject style="overflow: visible; text-align: left;" pointer-events="none" width="100%" height="100%" requiredFeatures="http://www.w3.org/TR/SVG11/feature#Extensibility"><div xmlns="http://www.w3.org/1999/xhtml" style="display: flex; align-items: unsafe center; justify-content: unsafe center; width: 1px; height: 1px; padding-top: 130px; margin-left: 386px;"><div style="box-sizing: border-box; font-size: 0; text-align: center; color: #000000; background-color: #ffffff; "><div style="display: inline-block; font-size: 11px; font-family: Helvetica; color: light-dark(#000000, #ffffff); line-height: 1.2; pointer-events: all; background-color: light-dark(#ffffff, var(--ge-dark-color, #121212)); white-space: nowrap; ">Origin (Read objects)</div></div></div></foreignObject><text x="386" y="133" fill="light-dark(#000000, #ffffff)" font-family="Helvetica" font-size="11px" text-anchor="middle">Origin (Read objects)</text></switch></g></g></g></g><g data-cell-id="iXkQexzd8ymgKwKsBB_q-3"><g transform="translate(0.5,0.5)"><path d="M 308 176.5 L 394 176.5 L 394 219 L 471.88 219" fill="none" stroke="#545b64" stroke-miterlimit="10" stroke-dasharray="3 3" pointer-events="stroke" style="stroke: rgb(84, 91, 100); animation: 188ms linear 0s infinite normal none running ge-flow-animation-Khzl9P-bm8aJHSub_1FD; stroke-dashoffset: 6;"/><path d="M 478.88 219 L 471.88 222.5 L 471.88 215.5 Z" fill="#545b64" stroke="#545b64" stroke-miterlimit="10" pointer-events="all" style="fill: rgb(84, 91, 100); stroke: rgb(84, 91, 100);"/></g><g data-cell-id="iXkQexzd8ymgKwKsBB_q-4"><g><g><switch><foreignObject style="overflow: visible; text-align: left;" pointer-events="none" width="100%" height="100%" requiredFeatures="http://www.w3.org/TR/SVG11/feature#Extensibility"><div xmlns="http://www.w3.org/1999/xhtml" style="display: flex; align-items: unsafe center; justify-content: unsafe center; width: 1px; height: 1px; padding-top: 176px; margin-left: 386px;"><div style="box-sizing: border-box; font-size: 0; text-align: center; color: #000000; background-color: #ffffff; "><div style="display: inline-block; font-size: 11px; font-family: Helvetica; color: light-dark(#000000, #ffffff); line-height: 1.2; pointer-events: all; background-color: light-dark(#ffffff, var(--ge-dark-color, #121212)); white-space: nowrap; ">Origin (Read objects)</div></div></div></foreignObject><text x="386" y="179" fill="light-dark(#000000, #ffffff)" font-family="Helvetica" font-size="11px" text-anchor="middle">Origin (Read objects)</text></switch></g></g></g></g><g data-cell-id="endKY-PiJRNDfLrGH-AZ-1"><g transform="translate(0.5,0.5)"><path d="M 670 40 L 748 40 L 748 118 L 670 118 Z" fill="#c925d1" stroke="none" pointer-events="all" style="fill: rgb(201, 37, 209);"/><path d="M 734 47.8 L 684 47.8 C 680.58 47.8 677.8 50.58 677.8 54 L 677.8 68.83 C 677.8 72.25 680.58 75.03 684 75.03 L 685.74 75.03 L 685.74 109.07 C 685.74 109.69 686.25 110.2 686.88 110.2 L 729.99 110.2 C 730.62 110.2 731.12 109.69 731.12 109.07 L 731.12 75.03 L 734 75.03 C 737.42 75.03 740.2 72.25 740.2 68.83 L 740.2 54 C 740.2 50.58 737.42 47.8 734 47.8 Z M 688.01 107.93 L 688.01 75.03 L 728.85 75.03 L 728.85 107.93 Z M 734 72.76 L 684 72.76 C 681.83 72.76 680.07 71 680.07 68.83 L 680.07 68.22 L 693.68 68.22 L 693.68 65.95 L 680.07 65.95 L 680.07 54 C 680.07 51.83 681.83 50.07 684 50.07 L 734 50.07 C 736.17 50.07 737.93 51.83 737.93 54 L 737.93 65.95 L 706.16 65.95 L 706.16 68.22 L 737.93 68.22 L 737.93 68.83 C 737.93 71 736.17 72.76 734 72.76 Z M 691.99 90.97 C 691.99 90.64 692.13 90.33 692.38 90.11 L 699.57 83.75 L 701.07 85.46 L 694.85 90.95 L 701.03 96.28 L 699.55 98 L 692.38 91.82 C 692.14 91.61 691.99 91.3 691.99 90.97 Z M 714.75 96.34 L 720.99 90.87 L 714.76 85.46 L 716.25 83.75 L 723.46 90 C 723.71 90.22 723.85 90.53 723.85 90.86 C 723.85 91.19 723.71 91.5 723.46 91.71 L 716.25 98.04 Z M 704.65 102.45 L 702.55 101.59 L 711.17 80.57 L 713.26 81.43 Z M 697.09 68.22 L 702.76 68.22 L 702.76 65.95 L 697.09 65.95 Z" fill="#ffffff" stroke="none" pointer-events="all" style="fill: rgb(255, 255, 255);"/></g><g><g><switch><foreignObject style="overflow: visible; text-align: left;" pointer-events="none" width="100%" height="100%" requiredFeatures="http://www.w3.org/TR/SVG11/feature#Extensibility"><div xmlns="http://www.w3.org/1999/xhtml" style="display: flex; align-items: unsafe flex-start; justify-content: unsafe center; width: 1px; height: 1px; padding-top: 125px; margin-left: 709px;"><div style="box-sizing: border-box; font-size: 0; text-align: center; color: #232F3E; "><div style="display: inline-block; font-size: 12px; font-family: Helvetica; color: #232F3E; line-height: 1.2; pointer-events: all; white-space: nowrap; ">CodePìpeline</div></div></div></foreignObject><text x="709" y="137" fill="#232F3E" font-family="Helvetica" font-size="12px" text-anchor="middle">CodePìpeline</text></switch></g></g></g><g data-cell-id="kyPrLV4zi4XnJRftsuiJ-1"><g transform="translate(0.5,0.5)"><rect x="880" y="55" width="48" height="48" fill="#ee5396" stroke="none" pointer-events="all" style="fill: rgb(238, 83, 150);"/></g><g><g fill="#FF0000" font-family="Helvetica" font-weight="bold" text-anchor="middle" font-size="14px" style="fill: rgb(255, 0, 0);"><text x="904" y="123">[YourDomainSource]</text></g></g><g data-cell-id="kyPrLV4zi4XnJRftsuiJ-2"><g transform="translate(0.5,0.5)"><rect x="892" y="67" width="24" height="24" fill="none" stroke="none" pointer-events="all"/><rect x="892" y="67" width="0" height="0" fill="none" stroke="none" pointer-events="all"/><path d="M 913.43 76.67 L 913.4 76.6 L 910.74 69.67 C 910.69 69.54 910.59 69.42 910.47 69.34 C 910.22 69.19 909.89 69.2 909.66 69.39 C 909.55 69.48 909.46 69.6 909.42 69.75 L 907.63 75.23 L 900.37 75.23 L 898.58 69.75 C 898.54 69.6 898.46 69.48 898.35 69.39 C 898.11 69.2 897.79 69.19 897.53 69.34 C 897.41 69.42 897.32 69.54 897.26 69.67 L 894.6 76.6 L 894.58 76.67 C 893.79 78.72 894.46 81.04 896.21 82.36 L 896.22 82.37 L 896.24 82.39 L 900.29 85.41 L 902.29 86.93 L 903.51 87.85 C 903.8 88.07 904.2 88.07 904.5 87.85 L 905.72 86.93 L 907.72 85.41 L 911.78 82.37 L 911.79 82.36 C 913.54 81.04 914.21 78.72 913.43 76.67 Z" fill="#ffffff" stroke="none" pointer-events="all" style="fill: rgb(255, 255, 255);"/></g></g></g><g data-cell-id="zmfBfOhtsK2VWn8ugLM8-1"><g transform="translate(0.5,0.5)"><path d="M 748 79 L 871.88 79" fill="none" stroke="#545b64" stroke-miterlimit="10" stroke-dasharray="3 3" pointer-events="stroke" style="stroke: rgb(84, 91, 100); animation: 188ms linear 0s infinite normal none running ge-flow-animation-Khzl9P-bm8aJHSub_1FD; stroke-dashoffset: 6;"/><path d="M 878.88 79 L 871.88 82.5 L 871.88 75.5 Z" fill="#545b64" stroke="#545b64" stroke-miterlimit="10" pointer-events="all" style="fill: rgb(84, 91, 100); stroke: rgb(84, 91, 100);"/></g><g data-cell-id="zmfBfOhtsK2VWn8ugLM8-2"><g><g><switch><foreignObject style="overflow: visible; text-align: left;" pointer-events="none" width="100%" height="100%" requiredFeatures="http://www.w3.org/TR/SVG11/feature#Extensibility"><div xmlns="http://www.w3.org/1999/xhtml" style="display: flex; align-items: unsafe center; justify-content: unsafe center; width: 1px; height: 1px; padding-top: 80px; margin-left: 808px;"><div style="box-sizing: border-box; font-size: 0; text-align: center; color: #000000; background-color: #ffffff; "><div style="display: inline-block; font-size: 11px; font-family: Helvetica; color: light-dark(#000000, #ffffff); line-height: 1.2; pointer-events: all; background-color: light-dark(#ffffff, var(--ge-dark-color, #121212)); white-space: nowrap; ">Source</div></div></div></foreignObject><text x="808" y="83" fill="light-dark(#000000, #ffffff)" font-family="Helvetica" font-size="11px" text-anchor="middle">Source</text></switch></g></g></g></g><g data-cell-id="Eo0imj1CQR7bY-otO6Wm-1"><g transform="translate(0.5,0.5)"><path d="M 670 79 L 566.12 79" fill="none" stroke="#545b64" stroke-miterlimit="10" stroke-dasharray="3 3" pointer-events="stroke" style="stroke: rgb(84, 91, 100); animation: 188ms linear 0s infinite normal none running ge-flow-animation-Khzl9P-bm8aJHSub_1FD; stroke-dashoffset: 6;"/><path d="M 559.12 79 L 566.12 75.5 L 566.12 82.5 Z" fill="#545b64" stroke="#545b64" stroke-miterlimit="10" pointer-events="all" style="fill: rgb(84, 91, 100); stroke: rgb(84, 91, 100);"/></g><g data-cell-id="Eo0imj1CQR7bY-otO6Wm-2"><g><g><switch><foreignObject style="overflow: visible; text-align: left;" pointer-events="none" width="100%" height="100%" requiredFeatures="http://www.w3.org/TR/SVG11/feature#Extensibility"><div xmlns="http://www.w3.org/1999/xhtml" style="display: flex; align-items: unsafe center; justify-content: unsafe center; width: 1px; height: 1px; padding-top: 80px; margin-left: 621px;"><div style="box-sizing: border-box; font-size: 0; text-align: center; color: #000000; background-color: #ffffff; "><div style="display: inline-block; font-size: 11px; font-family: Helvetica; color: light-dark(#000000, #ffffff); line-height: 1.2; pointer-events: all; background-color: light-dark(#ffffff, var(--ge-dark-color, #121212)); white-space: nowrap; ">Deploy</div></div></div></foreignObject><text x="621" y="83" fill="light-dark(#000000, #ffffff)" font-family="Helvetica" font-size="11px" text-anchor="middle">Deploy</text></switch></g></g></g></g></g></g></g></svg>