<?xml version="1.0" encoding="UTF-8"?>
<!DOCTYPE svg PUBLIC "-//W3C//DTD SVG 1.1//EN" "http://www.w3.org/Graphics/SVG/1.1/DTD/svg11.dtd">
<svg xmlns="http://www.w3.org/2000/svg" style="background: #ffffff; background-color: light-dark(#ffffff, var(--ge-dark-color, #121212)); color-scheme: light dark;" xmlns:xlink="http://www.w3.org/1999/xlink" version="1.1" width="141px" height="161px" viewBox="0 0 141 161"><defs/><rect fill="#ffffff" width="100%" height="100%" x="0" y="0" style="fill: light-dark(#ffffff, var(--ge-dark-color, #121212));"/><g><g data-cell-id="0"><g data-cell-id="1"><g data-cell-id="TGVnnjTWiDpW0DRlVi_T-1"><g transform="translate(0.5,0.5)"><rect x="0" y="0" width="140" height="160" fill="#ffffff" stroke="#000000" pointer-events="all" style="fill: light-dark(#ffffff, var(--ge-dark-color, #121212)); stroke: light-dark(rgb(0, 0, 0), rgb(255, 255, 255));"/></g></g><g data-cell-id="PXQcAZAKfNgQ8ARWzLUC-1"><g transform="translate(0.5,0.5)"><path d="M 30 30 L 110 30 L 110 110 L 30 110 Z" fill="#dd344c" stroke="none" pointer-events="all" style="fill: rgb(221, 52, 76);"/><path d="M 43.65 65.23 L 58.35 65.23 L 58.35 62.97 L 43.65 62.97 Z M 94.24 81.65 L 95.84 83.25 L 87.44 91.63 C 87.22 91.85 86.93 91.96 86.64 91.96 C 86.35 91.96 86.06 91.85 85.84 91.63 L 81.62 87.42 L 83.22 85.82 L 86.64 89.24 Z M 99.44 87.88 C 99.18 90 98.32 91.97 96.94 93.59 C 95.96 94.73 94.72 95.68 93.36 96.33 C 91.53 97.19 89.5 97.52 87.48 97.28 C 85.52 97.04 83.67 96.26 82.12 95.04 C 79.16 92.68 77.66 89.03 78.12 85.27 C 78.55 81.72 80.7 78.62 83.88 76.98 C 85.4 76.19 87.07 75.79 88.76 75.79 C 89.2 75.79 89.64 75.82 90.07 75.87 C 93.62 76.3 96.71 78.47 98.34 81.67 C 99.32 83.58 99.7 85.73 99.44 87.88 Z M 100.36 80.64 C 98.39 76.77 94.64 74.15 90.35 73.63 C 87.75 73.31 85.16 73.78 82.84 74.97 C 79 76.95 76.39 80.7 75.87 85 C 75.32 89.55 77.13 93.96 80.72 96.81 C 82.59 98.29 84.83 99.23 87.21 99.52 C 87.74 99.58 88.26 99.61 88.79 99.61 C 90.7 99.61 92.59 99.19 94.33 98.37 C 95.98 97.59 97.47 96.44 98.66 95.05 C 100.33 93.1 101.38 90.71 101.69 88.15 C 102 85.55 101.54 82.96 100.36 80.64 Z M 54.96 72 L 59.48 72 L 59.48 69.74 L 54.96 69.74 Z M 43.65 72 L 52.7 72 L 52.7 69.74 L 43.65 69.74 Z M 42.68 42.65 L 93.25 42.65 C 94.58 42.65 95.66 43.96 95.66 45.58 L 95.66 53.93 L 92.27 53.93 L 92.27 48.29 C 92.27 47.67 91.77 47.16 91.14 47.16 L 65.14 47.16 C 64.51 47.16 64.01 47.67 64.01 48.29 L 64.01 53.93 L 40.26 53.93 L 40.26 45.58 C 40.26 43.99 41.37 42.65 42.68 42.65 Z M 78.16 53.61 C 80.78 53.61 82.92 55.72 82.92 58.31 C 82.92 60.02 81.97 61.6 80.45 62.42 C 79.01 63.2 77.27 63.19 75.85 62.42 C 74.33 61.6 73.39 60.02 73.39 58.31 C 73.39 55.72 75.53 53.61 78.16 53.61 Z M 40.26 78.1 L 40.26 56.19 L 64.01 56.19 L 64.01 75.39 C 64.01 76.01 64.51 76.52 65.14 76.52 L 76.96 76.52 L 76.96 74.26 L 67.51 74.26 C 67.61 69.74 70.62 65.84 74.94 64.59 C 76.94 65.52 79.33 65.53 81.36 64.59 C 83.82 65.3 85.97 66.95 87.31 69.15 L 89.24 67.98 C 87.87 65.72 85.79 63.96 83.38 62.93 C 84.51 61.68 85.18 60.05 85.18 58.31 C 85.18 54.47 82.03 51.35 78.16 51.35 C 74.28 51.35 71.13 54.47 71.13 58.31 C 71.13 60.04 71.79 61.67 72.91 62.92 C 69.89 64.19 67.53 66.57 66.27 69.51 L 66.27 49.42 L 90.01 49.42 L 90.01 67.48 L 92.27 67.48 L 92.27 56.19 L 95.66 56.19 L 95.67 73.13 L 97.93 73.13 L 97.93 45.58 C 97.93 42.72 95.83 40.39 93.25 40.39 L 42.68 40.39 C 40.1 40.39 38 42.72 38 45.58 L 38 78.1 C 38 80.96 40.1 83.29 42.68 83.29 L 73.05 83.29 L 73.05 81.03 L 42.68 81.03 C 41.37 81.03 40.26 79.69 40.26 78.1 Z" fill="#ffffff" stroke="none" pointer-events="all" style="fill: rgb(255, 255, 255);"/></g><g><g><switch><foreignObject style="overflow: visible; text-align: left;" pointer-events="none" width="100%" height="100%" requiredFeatures="http://www.w3.org/TR/SVG11/feature#Extensibility"><div xmlns="http://www.w3.org/1999/xhtml" style="display: flex; align-items: unsafe flex-start; justify-content: unsafe center; width: 1px; height: 1px; padding-top: 117px; margin-left: 70px;"><div style="box-sizing: border-box; font-size: 0; text-align: center; color: #232F3E; "><div style="display: inline-block; font-size: 12px; font-family: Helvetica; color: #232F3E; line-height: 1.2; pointer-events: all; white-space: nowrap; ">Cognito User Pool</div></div></div></foreignObject><text x="70" y="129" fill="#232F3E" font-family="Helvetica" font-size="12px" text-anchor="middle">Cognito User...</text></switch></g></g></g></g></g></g></svg>