<?xml version="1.0" encoding="UTF-8"?>
<!DOCTYPE svg PUBLIC "-//W3C//DTD SVG 1.1//EN" "http://www.w3.org/Graphics/SVG/1.1/DTD/svg11.dtd">
<svg xmlns="http://www.w3.org/2000/svg" style="background: #ffffff; background-color: light-dark(#ffffff, var(--ge-dark-color, #121212)); color-scheme: light dark;" xmlns:xlink="http://www.w3.org/1999/xlink" version="1.1" width="261px" height="311px" viewBox="0 0 261 311"><defs/><rect fill="#ffffff" width="100%" height="100%" x="0" y="0" style="fill: light-dark(#ffffff, var(--ge-dark-color, #121212));"/><g><g data-cell-id="0"><g data-cell-id="1"><g data-cell-id="hQErezrh_3hmYDGyONqb-1"><g transform="translate(0.5,0.5)"><rect x="0" y="0" width="260" height="310" fill="#ffffff" stroke="#000000" pointer-events="all" style="fill: light-dark(#ffffff, var(--ge-dark-color, #121212)); stroke: light-dark(rgb(0, 0, 0), rgb(255, 255, 255));"/></g></g><g data-cell-id="LLZG1CV8YG_U6c5FSLiI-1"><g transform="translate(0.5,0.5)"><path d="M 90 30 L 168 30 L 168 108 L 90 108 Z" fill="#7aa116" stroke="none" pointer-events="all" style="fill: rgb(122, 161, 22);"/><path d="M 152.28 72.22 L 152.71 69.21 C 156.66 71.57 156.71 72.55 156.71 72.58 C 156.7 72.58 156.03 73.14 152.28 72.22 Z M 150.12 71.62 C 143.3 69.56 133.8 65.2 129.96 63.39 C 129.96 63.37 129.96 63.36 129.96 63.34 C 129.96 61.86 128.76 60.66 127.28 60.66 C 125.81 60.66 124.61 61.86 124.61 63.34 C 124.61 64.82 125.81 66.02 127.28 66.02 C 127.93 66.02 128.52 65.78 128.98 65.39 C 133.51 67.53 142.93 71.82 149.8 73.85 L 147.08 93.03 C 147.07 93.08 147.07 93.13 147.07 93.18 C 147.07 94.87 139.6 97.97 127.39 97.97 C 115.05 97.97 107.49 94.87 107.49 93.18 C 107.49 93.13 107.49 93.08 107.48 93.03 L 101.81 51.57 C 106.72 54.95 117.29 56.74 127.39 56.74 C 137.48 56.74 148.03 54.96 152.96 51.59 Z M 101.21 47.25 C 101.29 45.78 109.71 40.03 127.39 40.03 C 145.07 40.03 153.5 45.78 153.58 47.25 L 153.58 47.75 C 152.61 51.04 141.69 54.51 127.39 54.51 C 113.07 54.51 102.15 51.02 101.21 47.73 Z M 155.81 47.27 C 155.81 43.41 144.74 37.8 127.39 37.8 C 110.05 37.8 98.98 43.41 98.98 47.27 L 99.08 48.11 L 105.27 93.27 C 105.41 98.32 118.88 100.2 127.39 100.2 C 137.94 100.2 149.15 97.77 149.3 93.27 L 151.97 74.44 C 153.45 74.8 154.68 74.98 155.66 74.98 C 156.98 74.98 157.87 74.66 158.41 74.01 C 158.85 73.48 159.02 72.85 158.89 72.16 C 158.61 70.62 156.77 68.96 153.05 66.83 L 155.69 48.16 Z" fill="#ffffff" stroke="none" pointer-events="all" style="fill: rgb(255, 255, 255);"/></g><g><g><switch><foreignObject style="overflow: visible; text-align: left;" pointer-events="none" width="100%" height="100%" requiredFeatures="http://www.w3.org/TR/SVG11/feature#Extensibility"><div xmlns="http://www.w3.org/1999/xhtml" style="display: flex; align-items: unsafe flex-start; justify-content: unsafe center; width: 1px; height: 1px; padding-top: 115px; margin-left: 129px;"><div style="box-sizing: border-box; font-size: 0; text-align: center; color: #232F3E; "><div style="display: inline-block; font-size: 12px; font-family: Helvetica; color: #232F3E; line-height: 1.2; pointer-events: all; white-space: nowrap; "><b style="color: rgb(255, 0, 0); text-align: left; text-wrap-mode: wrap;">[<span style="color: rgb(0, 0, 0);"><font style="color: rgb(255, 0, 0);">YourDomain</font></span>.com] - Optional</b></div></div></div></foreignObject><text x="129" y="127" fill="#232F3E" font-family="Helvetica" font-size="12px" text-anchor="middle">[YourDomain.c...</text></switch></g></g></g><g data-cell-id="LLZG1CV8YG_U6c5FSLiI-2"><g transform="translate(0.5,0.5)"><path d="M 90 180 L 168 180 L 168 258 L 90 258 Z" fill="#7aa116" stroke="none" pointer-events="all" style="fill: rgb(122, 161, 22);"/><path d="M 152.28 222.22 L 152.71 219.21 C 156.66 221.57 156.71 222.55 156.71 222.58 C 156.7 222.58 156.03 223.14 152.28 222.22 Z M 150.12 221.62 C 143.3 219.56 133.8 215.2 129.96 213.39 C 129.96 213.37 129.96 213.36 129.96 213.34 C 129.96 211.86 128.76 210.66 127.28 210.66 C 125.81 210.66 124.61 211.86 124.61 213.34 C 124.61 214.82 125.81 216.02 127.28 216.02 C 127.93 216.02 128.52 215.78 128.98 215.39 C 133.51 217.53 142.93 221.82 149.8 223.85 L 147.08 243.03 C 147.07 243.08 147.07 243.13 147.07 243.18 C 147.07 244.87 139.6 247.97 127.39 247.97 C 115.05 247.97 107.49 244.87 107.49 243.18 C 107.49 243.13 107.49 243.08 107.48 243.03 L 101.81 201.57 C 106.72 204.95 117.29 206.74 127.39 206.74 C 137.48 206.74 148.03 204.96 152.96 201.59 Z M 101.21 197.25 C 101.29 195.78 109.71 190.03 127.39 190.03 C 145.07 190.03 153.5 195.78 153.58 197.25 L 153.58 197.75 C 152.61 201.04 141.69 204.51 127.39 204.51 C 113.07 204.51 102.15 201.02 101.21 197.73 Z M 155.81 197.27 C 155.81 193.41 144.74 187.8 127.39 187.8 C 110.05 187.8 98.98 193.41 98.98 197.27 L 99.08 198.11 L 105.27 243.27 C 105.41 248.32 118.88 250.2 127.39 250.2 C 137.94 250.2 149.15 247.77 149.3 243.27 L 151.97 224.44 C 153.45 224.8 154.68 224.98 155.66 224.98 C 156.98 224.98 157.87 224.66 158.41 224.01 C 158.85 223.49 159.02 222.85 158.89 222.16 C 158.61 220.62 156.77 218.96 153.05 216.83 L 155.69 198.16 Z" fill="#ffffff" stroke="none" pointer-events="all" style="fill: rgb(255, 255, 255);"/></g><g><g><switch><foreignObject style="overflow: visible; text-align: left;" pointer-events="none" width="100%" height="100%" requiredFeatures="http://www.w3.org/TR/SVG11/feature#Extensibility"><div xmlns="http://www.w3.org/1999/xhtml" style="display: flex; align-items: unsafe flex-start; justify-content: unsafe center; width: 1px; height: 1px; padding-top: 265px; margin-left: 129px;"><div style="box-sizing: border-box; font-size: 0; text-align: center; color: #232F3E; "><div style="display: inline-block; font-size: 12px; font-family: Helvetica; color: #232F3E; line-height: 1.2; pointer-events: all; white-space: nowrap; "><span style="text-wrap-mode: wrap;"><b style=""><font style="color: rgb(255, 0, 0);">[</font></b></span><b style="color: rgb(0, 0, 0); text-align: left; text-wrap-mode: wrap;"><font style="color: rgb(255, 0, 0);">OwncastSegments</font></b><span style="color: rgb(0, 0, 0); text-align: left; text-wrap-mode: wrap; background-color: transparent;"><b><font style="color: rgb(255, 0, 0);">BucketName</font></b></span><span style="text-wrap-mode: wrap;"><b style=""><font style="color: rgb(255, 0, 0);">]</font></b></span></div></div></div></foreignObject><text x="129" y="277" fill="#232F3E" font-family="Helvetica" font-size="12px" text-anchor="middle">[OwncastSegme...</text></switch></g></g></g></g></g></g></svg>