<?xml version="1.0" encoding="UTF-8"?>
<!DOCTYPE svg PUBLIC "-//W3C//DTD SVG 1.1//EN" "http://www.w3.org/Graphics/SVG/1.1/DTD/svg11.dtd">
<svg xmlns="http://www.w3.org/2000/svg" style="background: #ffffff; background-color: light-dark(#ffffff, var(--ge-dark-color, #121212)); color-scheme: light dark;" xmlns:xlink="http://www.w3.org/1999/xlink" version="1.1" width="221px" height="311px" viewBox="0 0 221 311"><defs/><rect fill="#ffffff" width="100%" height="100%" x="0" y="0" style="fill: light-dark(#ffffff, var(--ge-dark-color, #121212));"/><g><g data-cell-id="0"><g data-cell-id="1"><g data-cell-id="_5BtOj2kpU8Z7ME2Lah8-1"><g transform="translate(0.5,0.5)"><rect x="0" y="0" width="220" height="310" fill="#ffffff" stroke="#000000" pointer-events="all" style="fill: light-dark(#ffffff, var(--ge-dark-color, #121212)); stroke: light-dark(rgb(0, 0, 0), rgb(255, 255, 255));"/></g></g><g data-cell-id="Y2kNk0-IhpgSMJxwxGxD-1"><g transform="translate(0.5,0.5)"><path d="M 70 170 L 148 170 L 148 248 L 70 248 Z" fill="#dd344c" stroke="none" pointer-events="all" style="fill: rgb(221, 52, 76);"/><path d="M 80.03 230.17 L 137.97 230.17 L 137.97 187.83 L 80.03 187.83 Z M 140.2 186.71 L 140.2 231.29 C 140.2 231.9 139.7 232.4 139.09 232.4 L 78.91 232.4 C 78.3 232.4 77.8 231.9 77.8 231.29 L 77.8 186.71 C 77.8 186.1 78.3 185.6 78.91 185.6 L 139.09 185.6 C 139.7 185.6 140.2 186.1 140.2 186.71 Z M 113.46 217.91 L 130.17 217.91 L 130.17 215.69 L 113.46 215.69 Z M 127.94 211.23 L 133.51 211.23 L 133.51 209 L 127.94 209 Z M 113.46 211.23 L 122.37 211.23 L 122.37 209 L 113.46 209 Z M 96.74 215.69 C 96.74 215.07 96.24 214.57 95.63 214.57 C 95.01 214.57 94.51 215.07 94.51 215.69 C 94.51 216.3 95.01 216.8 95.63 216.8 C 96.24 216.8 96.74 216.3 96.74 215.69 Z M 98.97 215.69 C 98.97 217.14 98.04 218.36 96.74 218.82 L 96.74 221.26 L 94.51 221.26 L 94.51 218.82 C 93.22 218.36 92.29 217.14 92.29 215.69 C 92.29 213.84 93.79 212.34 95.63 212.34 C 97.47 212.34 98.97 213.84 98.97 215.69 Z M 85.6 224.59 L 105.65 224.6 L 105.65 220.14 L 101.2 220.14 L 101.2 217.91 L 105.65 217.91 L 105.65 214.57 L 101.2 214.57 L 101.2 212.34 L 105.66 212.34 L 105.66 209.01 L 85.61 209 Z M 88.94 206.77 L 102.31 206.78 L 102.31 198.97 C 102.32 196.41 99.19 194.15 95.63 194.15 L 95.62 194.15 C 92.07 194.15 88.95 196.4 88.95 198.97 Z M 83.37 225.71 L 83.38 207.89 C 83.38 207.59 83.5 207.31 83.7 207.1 C 83.91 206.89 84.2 206.77 84.49 206.77 L 86.71 206.77 L 86.72 198.97 C 86.72 195.08 90.71 191.92 95.62 191.92 L 95.63 191.92 C 100.54 191.93 104.54 195.09 104.54 198.97 L 104.54 206.78 L 106.77 206.78 C 107.39 206.78 107.89 207.28 107.89 207.89 L 107.88 225.71 C 107.88 226.01 107.76 226.29 107.55 226.5 C 107.34 226.71 107.06 226.83 106.76 226.83 L 84.49 226.82 C 83.87 226.82 83.37 226.32 83.37 225.71 Z M 131.29 204.54 L 133.51 204.54 L 133.51 202.31 L 131.29 202.31 Z M 113.46 204.54 L 125.71 204.54 L 125.71 202.31 L 113.46 202.31 Z" fill="#ffffff" stroke="none" pointer-events="all" style="fill: rgb(255, 255, 255);"/></g><g><g><switch><foreignObject style="overflow: visible; text-align: left;" pointer-events="none" width="100%" height="100%" requiredFeatures="http://www.w3.org/TR/SVG11/feature#Extensibility"><div xmlns="http://www.w3.org/1999/xhtml" style="display: flex; align-items: unsafe flex-start; justify-content: unsafe center; width: 1px; height: 1px; padding-top: 255px; margin-left: 109px;"><div style="box-sizing: border-box; font-size: 0; text-align: center; color: #232F3E; "><div style="display: inline-block; font-size: 12px; font-family: Helvetica; color: #232F3E; line-height: 1.2; pointer-events: all; white-space: nowrap; "><b><font style="color: rgb(255, 0, 0);">Owncast</font></b> User<div>Permission: <b><font style="color: rgb(255, 0, 0);">OwncastPolicy</font></b></div></div></div></div></foreignObject><text x="109" y="267" fill="#232F3E" font-family="Helvetica" font-size="12px" text-anchor="middle">Owncast User...</text></switch></g></g></g><g data-cell-id="9upHnRuQ8tdOzPaYuVp5-1"><g transform="translate(0.5,0.5)"><path d="M 70 30 L 148 30 L 148 108 L 70 108 Z" fill="#dd344c" stroke="none" pointer-events="all" style="fill: rgb(221, 52, 76);"/><path d="M 80.03 90.17 L 137.97 90.17 L 137.97 47.83 L 80.03 47.83 Z M 140.2 46.71 L 140.2 91.29 C 140.2 91.9 139.7 92.4 139.09 92.4 L 78.91 92.4 C 78.3 92.4 77.8 91.9 77.8 91.29 L 77.8 46.71 C 77.8 46.1 78.3 45.6 78.91 45.6 L 139.09 45.6 C 139.7 45.6 140.2 46.1 140.2 46.71 Z M 113.46 77.91 L 130.17 77.91 L 130.17 75.69 L 113.46 75.69 Z M 127.94 71.23 L 133.51 71.23 L 133.51 69 L 127.94 69 Z M 113.46 71.23 L 122.37 71.23 L 122.37 69 L 113.46 69 Z M 96.74 75.69 C 96.74 75.07 96.24 74.57 95.63 74.57 C 95.01 74.57 94.51 75.07 94.51 75.69 C 94.51 76.3 95.01 76.8 95.63 76.8 C 96.24 76.8 96.74 76.3 96.74 75.69 Z M 98.97 75.69 C 98.97 77.14 98.04 78.36 96.74 78.82 L 96.74 81.26 L 94.51 81.26 L 94.51 78.82 C 93.22 78.36 92.29 77.14 92.29 75.69 C 92.29 73.84 93.79 72.34 95.63 72.34 C 97.47 72.34 98.97 73.84 98.97 75.69 Z M 85.6 84.59 L 105.65 84.6 L 105.65 80.14 L 101.2 80.14 L 101.2 77.91 L 105.65 77.91 L 105.65 74.57 L 101.2 74.57 L 101.2 72.34 L 105.66 72.34 L 105.66 69.01 L 85.61 69 Z M 88.94 66.77 L 102.31 66.78 L 102.31 58.97 C 102.32 56.41 99.19 54.15 95.63 54.15 L 95.62 54.15 C 92.07 54.15 88.95 56.4 88.95 58.97 Z M 83.37 85.71 L 83.38 67.89 C 83.38 67.59 83.5 67.31 83.7 67.1 C 83.91 66.89 84.2 66.77 84.49 66.77 L 86.71 66.77 L 86.72 58.97 C 86.72 55.08 90.71 51.92 95.62 51.92 L 95.63 51.92 C 100.54 51.93 104.54 55.09 104.54 58.97 L 104.54 66.78 L 106.77 66.78 C 107.39 66.78 107.89 67.28 107.89 67.89 L 107.88 85.71 C 107.88 86.01 107.76 86.29 107.55 86.5 C 107.34 86.71 107.06 86.83 106.76 86.83 L 84.49 86.82 C 83.87 86.82 83.37 86.32 83.37 85.71 Z M 131.29 64.54 L 133.51 64.54 L 133.51 62.31 L 131.29 62.31 Z M 113.46 64.54 L 125.71 64.54 L 125.71 62.31 L 113.46 62.31 Z" fill="#ffffff" stroke="none" pointer-events="all" style="fill: rgb(255, 255, 255);"/></g><g><g><switch><foreignObject style="overflow: visible; text-align: left;" pointer-events="none" width="100%" height="100%" requiredFeatures="http://www.w3.org/TR/SVG11/feature#Extensibility"><div xmlns="http://www.w3.org/1999/xhtml" style="display: flex; align-items: unsafe flex-start; justify-content: unsafe center; width: 1px; height: 1px; padding-top: 115px; margin-left: 109px;"><div style="box-sizing: border-box; font-size: 0; text-align: center; color: #232F3E; "><div style="display: inline-block; font-size: 12px; font-family: Helvetica; color: #232F3E; line-height: 1.2; pointer-events: all; white-space: nowrap; "><font style="color: rgb(0, 0, 0);">IAM Policies and Roles</font></div></div></div></foreignObject><text x="109" y="127" fill="#232F3E" font-family="Helvetica" font-size="12px" text-anchor="middle">IAM Policies...</text></switch></g></g></g></g></g></g></svg>